<svg xmlns="http://www.w3.org/2000/svg" xmlns:xlink="http://www.w3.org/1999/xlink" width="1448" height="456" xml:space="preserve"><defs><clipPath id="clip0"><rect x="640" y="145" width="1448" height="456"></rect></clipPath><clipPath id="clip1"><rect x="651" y="383" width="48" height="53"></rect></clipPath><clipPath id="clip2"><rect x="651" y="383" width="48" height="53"></rect></clipPath><clipPath id="clip3"><rect x="651" y="383" width="48" height="53"></rect></clipPath><linearGradient x1="1098.59" y1="277.611" x2="1626.59" y2="277.611" gradientUnits="userSpaceOnUse" spreadMethod="reflect" id="fill4"><stop offset="0" stop-color="#817F7B"></stop><stop offset="0.47" stop-color="#817F7B"></stop><stop offset="0.51" stop-color="#FFC000"></stop><stop offset="1" stop-color="#FFC000"></stop></linearGradient></defs><g clip-path="url(#clip0)" transform="translate(-640 -145)"><path d="M735.776 415.662 731.875 419.491 720.695 408.588C719.59 410.763 717.347 413.488 715.658 415.142 714 416.765 711.758 418.388 709.516 419.491L705.615 415.142C707.857 414.039 709.516 412.937 711.205 411.313 712.863 410.242 714 408.588 715.105 406.965 716.211 405.342 716.795 403.688 717.347 402.065 717.9 400.442 717.9 398.788 717.9 397.165L717.9 390.091 724.043 390.091 724.043 396.614C724.043 397.716 724.043 398.788 724.043 399.89 724.043 400.962 724.043 402.065 723.49 403.137L735.776 415.662ZM748.615 433.639 743.025 433.639 743.025 404.79 730.739 404.79 730.739 399.339 743.025 399.339 743.025 384.639 748.615 384.639 748.615 433.639Z" fill="#7F7F7F" fill-rule="evenodd"></path><path d="M800.615 412.903 780.345 412.903 780.345 415.717 790.771 415.717 790.771 428.717 771.052 428.717 771.052 430.981 791.845 430.981 791.845 436.64 765.011 436.64 765.011 423.089 784.73 423.089 784.73 420.825 764.459 420.825 764.459 415.167 774.334 415.167 774.334 412.322 754.615 412.322 754.615 406.694 800.615 406.694 800.615 412.903 800.615 412.903ZM789.667 395.376C789.667 397.089 789.667 398.19 788.563 399.903 788.011 401.035 786.938 402.167 785.834 403.298 784.73 403.849 783.626 404.981 782.001 405.562 780.345 406.113 778.719 406.113 777.063 406.113 775.438 406.113 773.782 406.113 772.126 405.562 770.501 404.981 769.396 404.43 768.292 403.298 767.219 402.717 766.115 401.586 765.563 399.903 765.011 398.771 764.459 397.089 764.459 395.376 764.459 393.694 764.459 392.562 765.563 390.849 766.115 389.717 767.219 388.586 768.292 387.454 769.396 386.903 770.501 385.771 772.126 385.19 773.782 384.64 775.438 384.64 777.063 384.64 778.719 384.64 780.345 384.64 782.001 385.19 783.626 385.771 784.73 386.322 785.834 387.454 786.938 388.586 788.011 389.167 788.563 390.849 789.115 392.562 789.667 393.694 789.667 395.376ZM783.626 394.825C783.626 393.113 783.105 391.981 781.449 390.849 780.345 389.717 778.719 389.717 776.511 389.717 774.886 389.717 773.23 390.298 771.605 390.849 770.501 391.981 769.948 393.113 769.948 394.825 769.948 396.508 770.501 397.64 771.605 398.771 772.678 399.903 774.334 399.903 776.511 399.903 778.167 399.903 779.792 399.322 781.449 398.771 783.105 398.19 783.626 397.089 783.626 394.825Z" fill="#7F7F7F" fill-rule="evenodd"></path><path d="M849.615 416.702 803.615 416.702 803.615 411.343 849.615 411.343 849.615 416.702ZM839.771 436.639 834.282 436.639 834.282 424.787 813.459 424.787 813.459 419.397 839.771 419.397 839.771 436.639 839.771 436.639ZM839.771 408.648 814.011 408.648 814.011 387.639 839.771 387.639 839.771 393.029 819.501 393.029 819.501 395.173 838.667 395.173 838.667 400.563 819.501 400.563 819.501 402.707 839.771 402.707 839.771 408.648Z" fill="#7F7F7F" fill-rule="evenodd"></path><path d="M875.137 410.365 852.614 410.365 852.614 387.423 858.244 387.423 858.244 394.153 868.952 394.153 868.952 387.423 874.583 387.423 875.137 410.365 875.137 410.365ZM869.506 404.767 869.506 399.75 858.798 399.75 858.798 404.767 869.506 404.767ZM892.06 436.64 865.014 436.64 865.014 423.211 884.737 423.211 884.737 420.428 864.429 420.428 864.429 414.83 890.368 414.83 890.368 428.259 870.644 428.259 870.644 431.042 891.476 431.042 892.06 436.64 892.06 436.64ZM892.614 412.597 886.983 412.597 886.983 407.55 877.414 407.55 877.414 401.983 886.983 401.983 886.983 398.068 877.414 398.068 877.414 392.471 886.983 392.471 886.983 384.64 892.614 384.64 892.614 412.597Z" fill="#7F7F7F" fill-rule="evenodd"></path><path d="M928.414 415.478 924.691 419.337 914.014 408.312C912.937 411.069 910.814 413.274 909.214 414.927 907.614 416.581 905.491 418.235 903.337 419.337L899.614 414.927C901.737 413.825 903.337 412.723 904.937 411.069 906.537 409.966 907.614 408.312 908.691 406.658 909.214 405.005 910.291 403.351 910.814 401.697 911.337 400.044 911.337 398.39 911.337 396.767L911.337 389.049 917.214 389.049 917.214 395.664C917.214 396.767 917.214 397.839 917.214 398.941 917.214 400.044 917.214 401.146 916.691 402.249L928.414 415.478ZM939.614 433.639 934.291 433.639 934.291 384.639 939.614 384.639 939.614 433.639Z" fill="#7F7F7F" fill-rule="evenodd"></path><path d="M976.363 412.047 949.168 412.047 949.168 396.936 963.845 396.936 963.845 393.021 948.613 393.021 948.613 387.423 969.826 387.423 969.826 402.534 954.595 402.534 954.595 406.449 976.363 406.449 976.363 412.047ZM985.058 436.64 959.498 436.64 959.498 415.381 965.479 415.381 965.479 420.978 979.076 420.978 979.076 415.381 985.058 415.381 985.058 436.64 985.058 436.64ZM979.076 431.042 979.076 426.026 964.924 426.026 964.924 430.491 979.076 431.042 979.076 431.042ZM985.613 413.148 980.186 413.148 980.186 384.64 985.613 384.64 985.613 413.148Z" fill="#7F7F7F" fill-rule="evenodd"></path><g clip-path="url(#clip1)"><g clip-path="url(#clip2)"><g clip-path="url(#clip3)"><path d="M28.7753 6.90218C28.8739 7.05623 29.0031 7.19331 29.0176 7.34736 29.1642 7.79751 29.5808 8.06752 29.6321 8.52761 29.6495 8.68042 29.8483 8.7413 29.9522 8.80963 30.0645 8.95291 29.9858 9.11525 30.2024 9.32769 30.3055 9.39478 30.2272 9.55753 30.2446 9.71117 30.3473 9.77826 30.4546 9.84617 30.556 9.91285 31.4899 11.3751 31.581 13.0714 30.4972 14.645 30.3241 14.8165 30.1597 15.0637 30.0889 15.3027 30.0007 15.3888 29.8197 15.4836 29.7315 15.5693 29.7485 15.7246 29.852 15.7905 29.9638 15.935 29.4963 16.0568 29.4429 16.4473 29.0851 16.7161 28.9906 16.7235 28.8001 16.7426 28.7041 16.7508 28.4415 17.0072 28.1636 17.1111 27.8936 17.2917 27.8083 17.3778 27.8319 17.6085 27.841 17.6839 27.3979 18.0354 26.7453 18.2524 26.0674 18.2375 25.9729 18.2479 25.9025 18.4864 25.8065 18.4947 25.3281 18.5407 24.7471 18.5171 24.2688 18.5618 24.0692 18.5034 23.957 18.3601 23.7565 18.2997 23.566 18.3187 23.3751 18.3357 23.1743 18.2781 22.8633 18.0731 22.4736 18.0338 22.1676 17.9075 21.9684 17.847 21.6023 18.0359 21.3956 17.9021 20.7537 17.3401 20.1139 16.7836 19.7603 16.1947 19.5263 15.8302 19.1271 15.7135 18.9888 15.3383 18.973 15.1842 19.0447 14.9461 18.8422 14.8877 18.4421 14.7688 18.6094 14.5212 18.585 14.2918 18.4632 14.0706 18.445 13.9178 18.2305 13.7041 18.1087 13.483 18.2649 13.1579 18.1377 12.8614 18.129 12.784 18.2156 12.6974 18.2077 12.6212 18.0615 12.1698 18.298 11.6841 18.2553 11.3006 18.2284 11.0711 18.2918 10.7535 18.3605 10.5154 18.597 10.0276 18.8248 9.46353 19.2517 8.95871 19.2426 8.88417 19.2256 8.73136 19.2178 8.65309 19.3051 8.56612 19.4 8.55908 19.4874 8.47129 19.636 8.07166 19.7922 7.74657 20.0477 7.41321 20.3856 6.99453 20.9264 6.63341 21.3625 6.20521 21.6222 5.94887 21.9887 5.76003 22.2326 5.34756 22.3208 5.26267 22.6243 5.38939 22.7125 5.30532 22.9726 5.04691 23.3644 5.08874 23.634 4.90776 23.9023 4.72928 23.8489 5.11938 24.1268 5.01626 24.3189 4.99846 24.4042 4.91315 24.5881 4.8179 24.8652 4.71603 25.1782 4.91688 25.4743 4.96864 25.7597 4.94007 26.0558 4.99183 26.368 5.19351 26.7838 5.46435 27.74 5.37324 27.8945 5.90332 28.1268 6.26774 28.5417 6.53858 28.7753 6.90218Z" fill="#BD1239" transform="matrix(1 0 0 1.00534 651.01 384)"></path><path d="M44.953 12.9678C44.9422 12.7272 44.953 12.5823 44.8577 12.3301 44.8317 12.0911 45.0201 11.8244 44.9381 11.4969 44.883 11.4091 44.7617 11.3047 44.7766 11.2314 44.9381 10.7278 44.9509 10.2665 44.9103 9.71863 44.8689 9.5538 44.8159 9.4656 44.7617 9.37532 44.7745 9.30202 44.8022 9.15335 44.83 9.00551 44.8416 8.54583 44.6938 8.20459 44.5592 7.78799 44.5177 7.62648 44.396 7.52129 44.3699 7.28441 44.3152 7.19621 44.1935 7.09019 44.2055 7.01648 44.3277 6.34808 44.003 5.81386 43.9077 5.17653 43.7578 4.44975 43.07 3.99048 42.8517 3.2492 42.8629 3.17342 43.0882 3.20531 43.1561 3.22104 43.6978 3.72503 44.2945 4.31764 44.4428 5.04484 44.5376 5.2987 44.4975 5.51942 44.6068 5.69957 45.0652 6.26112 45.1476 6.97465 45.2292 7.68611 45.2172 7.76148 45.3646 7.71593 45.4185 7.80704 45.4056 7.87909 45.3779 8.02818 45.4321 8.11721 45.7841 8.50193 45.568 8.9173 45.6367 9.319 45.6777 9.48258 45.7299 9.57078 45.7837 9.65899 45.7709 9.73436 45.5961 9.929 45.5812 10.0011 45.8674 10.3721 45.9879 10.8628 45.9084 11.3068 46.233 11.4567 46.0844 11.8849 46.1647 12.2125 46.2169 12.3015 46.2877 12.316 46.3552 12.3313 46.448 12.1976 46.5424 12.0638 46.5706 11.9147 46.612 11.3068 46.6385 10.7726 46.5287 10.2094 46.4347 9.95757 46.4053 9.71945 46.5826 9.52771 46.4471 9.4979 46.4053 9.33308 46.3523 9.24363 46.1092 8.26423 46.0065 7.16763 45.7175 6.16587 45.7175 6.16587 45.7974 6.10706 45.8131 6.03418 45.7104 5.15748 45.0429 4.33172 44.7261 3.44798 44.6759 3.28979 44.4188 3.10178 44.2991 2.93157 44.2991 2.93157 44.3074 2.85703 44.3157 2.78166 44.6581 2.8297 44.919 3.16017 45.0988 3.41485 45.4553 3.92174 45.8674 4.48412 45.975 5.04691 46.1647 5.55048 46.4442 6.08387 46.5569 6.57461 46.631 6.90176 46.87 7.11628 47.0269 7.38836 47.1168 7.64346 47.0708 7.86336 47.0932 8.10148 47.1901 8.668 47.3636 9.21629 47.4688 9.7824 47.6046 10.1957 47.6618 10.6707 47.5239 11.0277 47.3371 11.6803 47.7694 12.393 47.945 12.9711 48.0403 13.2238 47.9198 13.5058 47.8121 13.7137 47.7988 13.787 47.9202 13.8922 47.9057 13.9655 47.7839 14.2458 47.88 14.4997 47.8241 14.7974 47.7446 14.8558 47.9202 15.0484 47.8266 15.1809 47.7446 15.2414 47.6783 15.2265 47.5955 15.2873 47.4878 15.4936 47.5835 15.7474 47.5413 15.9694 47.3255 16.3835 47.434 16.948 47.0286 17.2453 46.8795 17.288 46.8646 17.3633 46.7851 17.4238 46.8517 17.4379 46.9068 17.5273 46.9602 17.6164 46.8795 17.6747 46.8103 17.6594 46.7308 17.7199 46.7047 17.8673 46.9909 18.0499 47.0468 18.1381 46.9366 18.7332 46.4923 19.2513 46.5051 19.9499 46.4786 20.0986 46.4372 20.321 46.4124 20.4697 46.2757 20.8254 46.0189 21.0784 45.8835 21.4333 45.8574 21.5807 45.5738 21.5977 45.5464 21.7456 45.3696 21.9377 45.3857 22.2491 45.2615 22.5316 45.1675 22.6653 44.9642 22.6219 44.8022 22.7386 44.6142 23.0053 44.6399 23.2435 44.5194 23.5259 44.3161 23.8667 44.0688 24.2336 43.8672 24.5744 43.6377 25.0656 43.2497 25.5369 42.8323 25.9079 42.7635 25.8942 42.6149 25.9377 42.5333 25.9986 42.3175 26.4127 42.0707 26.7262 41.6114 26.9337 41.5427 26.9196 41.4412 27.2426 41.3605 27.3027 41.0428 27.5379 40.8602 27.8058 40.4767 28.029 40.3326 28.0734 40.2531 28.1334 40.0924 27.8655 39.5922 28.7575 38.9192 29.4549 38.19 30.0636 37.8102 30.2864 37.4226 30.2616 37.1704 30.5113 36.3413 31.3304 35.0203 32.1959 34.8699 32.3173 34.807 32.3011 34.5536 32.6805 34.5536 32.6805 34.284 32.7041 34.4384 32.7281 34.1908 32.6709 34.1908 32.6709 34.18 33.09 33.8417 33.158 33.1277 33.3004 32.9397 34.1291 32.8838 34.4724 32.8556 34.6422 32.7372 34.5254 32.6552 34.5954 32.574 34.6649 32.6279 34.7643 32.5463 34.8356 32.2365 35.0269 31.9682 35.4083 31.7098 35.7003 31.6303 35.7698 31.5768 35.6663 31.4948 35.7379 31.4128 35.8054 31.0343 36.2775 30.8985 36.69 30.573 37.4122 30.2173 38.0599 29.7696 38.5705 29.6603 38.6948 30.0222 39.1785 29.9957 39.3416 29.8922 39.5702 29.6868 39.6087 29.5857 39.8357 29.4913 40.4043 29.4661 41.0346 29.3691 41.6346 29.2064 42.221 29.4081 42.6376 29.4876 43.1603 29.5762 43.6005 29.464 44.1691 29.4863 44.596 29.5178 44.9406 29.7522 45.3174 29.7145 45.652 29.7274 46.1651 29.6093 46.0964 29.7207 46.5275 29.7062 46.7801 29.6234 47.0282 29.681 47.2013 29.6607 47.54 29.6069 47.7487 29.5882 48.0862 29.5157 48.167 29.3687 48.3264 29.365 48.4105 29.3141 49.2541 28.7612 49.9978 28.1831 50.5515 27.8257 50.7813 27.5143 51.1325 27.1043 51.1031 26.9002 51.0911 26.2135 51.5247 25.9854 51.5785 25.3778 51.7508 24.8937 51.7541 24.3135 51.6738 23.6712 51.4986 23.1635 51.3379 22.7225 50.6815 22.4599 50.3892 22.0069 50.4985 21.8383 50.0488 21.7866 49.8715 21.4163 49.7796 21.3538 49.686 21.0192 49.3833 20.8411 49.0176 20.5889 48.6428 20.4191 48.1952 20.5425 47.8883 20.34 47.4539 20.128 47.1859 20.0377 46.9975 19.8282 46.73 19.5491 46.3763 19.8932 45.867 19.6882 45.5174 19.5429 45.4243 19.4041 45.2466 19.337 45.0727 19.2033 44.7248 19.2339 44.2233 19.0269 43.8568 18.9155 43.4166 18.9867 41.8276 19.0699 41.399 19.0873 41.312 18.8397 41.1919 18.8542 41.1033 18.8877 40.4879 19.1022 39.8883 19.0525 39.2518 19.1192 38.9097 19.0869 38.6356 19.3975 38.3436 19.3975 38.3436 19.2509 38.2243 19.2658 38.1382 19.4455 37.64 19.4447 37.2582 19.5412 36.7422 19.5569 36.6565 19.7396 36.6043 19.757 36.5181 19.6563 36.1409 19.6514 35.3735 19.7168 35.029 19.7491 34.8571 20.193 34.602 20.2949 34.4471 20.3098 34.3635 20.2311 34.1423 20.3972 33.8458 20.4403 33.7725 20.5566 33.7949 20.6411 33.727 20.6552 33.6396 20.5989 33.5377 20.6142 33.452 20.6564 33.1956 21.0908 33.0097 21.1207 32.8391 21.2929 32.2556 21.5865 32.0125 21.8918 31.5375 22.004 31.33 22.0458 31.1068 22.226 30.9147 22.3075 30.8546 22.3481 30.9122 22.3618 30.8376 22.3763 30.7631 22.3365 30.5991 22.3481 30.5262 22.5208 30.332 22.7577 30.1547 22.7974 29.9315 22.9171 29.6487 23.0227 29.4412 23.1946 29.2474 23.5118 29.0113 23.8278 28.7724 24.0261 28.432 24.1976 28.2378 24.3955 28.2837 24.5686 28.0899 24.8188 27.8373 24.8859 27.4675 25.0706 27.2012 25.5066 26.679 25.9812 26.3237 26.4579 25.9675 26.8521 25.669 27.3561 25.5509 27.7383 25.3281 28.1342 25.0316 28.3728 24.4684 28.7554 24.2452 28.9915 24.0671 29.2706 24.0518 29.5083 23.8733 29.7464 23.6961 29.9448 23.354 30.3009 23.2795 31.0907 23.0703 30.5254 23.294 31.265 22.997 31.7263 22.7154 31.5354 22.6376 31.9963 22.3539 32.7633 21.9075 33.1621 21.6238 33.2267 21.6379 33.3058 21.5803 33.3849 21.5199 33.4122 21.3733 33.5961 21.1033 34.5776 20.4171 34.7246 20.3711 34.8695 20.328 35.0414 20.5198 35.2108 20.328 35.3056 20.1943 35.118 20.075 35.2108 19.9412 35.4625 19.6895 35.7036 19.3482 35.9467 19.1706 36.0278 19.1109 36.2179 19.2289 36.3662 19.1834 36.4469 19.1258 36.4747 18.9763 36.555 18.9184 36.6498 18.7846 36.4747 18.5924 36.5678 18.4574 36.6763 18.2491 36.7836 18.0433 36.9343 17.9998 37.1642 17.8938 37.4739 17.7323 37.4342 17.5696 37.4872 17.2718 37.6098 16.9894 37.9212 16.827 37.9332 16.7537 37.9489 16.6759 37.963 16.6038 38.1365 16.4092 38.2989 16.2932 38.4745 16.1003 38.6641 15.8315 38.5817 15.5064 38.691 15.2981 39.0418 14.9121 39.3806 14.6011 39.4754 14.0814 39.4476 13.8433 39.2986 13.5025 39.4071 13.2929 39.5002 13.1612 39.798 13.0718 39.8257 12.9231 39.8804 12.627 39.7309 12.2845 39.7181 11.9735 39.7562 11.7516 40.0001 11.5739 39.9723 11.3358 39.9463 10.7121 39.9868 10.1033 39.8932 9.4656 40.1073 9.43578 40.1347 9.28711 40.1612 9.13927 40.1069 8.66427 39.8369 8.22033 39.7152 7.72918 39.7019 7.41818 39.9558 7.16515 39.9434 6.85373 39.9164 6.61685 39.6891 6.33442 39.4418 6.12611 39.2133 5.84327 39.3632 5.41506 39.2803 5.08915 39.2133 4.68869 38.9143 4.39011 38.86 3.91718 38.8335 3.67906 38.549 3.69314 38.4538 3.44136 38.3726 3.11503 38.2918 2.78829 38.2918 2.40232 38.2508 2.23957 38.0359 2.26939 37.9133 2.16545 37.6412 1.72026 37.7361 0.814993 37.1402 0.607932 37.1948 0.31142 36.9248 0.250958 36.8283 2.20689e-15 37.182 2.20689e-15 37.505 0.147428 37.7079 0.578943 37.7634 0.667151 37.9663 0.711876 38.0334 0.726785 38.2111 0.918938 38.1966 1.37903 38.3854 1.49912 38.6281 1.70536 38.9946 1.63206 39.0882 1.88467 39.2236 2.29797 39.5363 2.52118 39.6845 2.86324 39.6713 2.93778 39.7123 3.10012 39.7649 3.18916 40.01 3.39663 40.0357 3.6331 40.2105 3.82608 40.6171 4.3019 41.0242 4.77814 40.8341 5.42914 40.7153 5.71199 41.078 5.63745 41.1882 5.81386 41.4599 6.26112 41.3493 6.85373 41.7013 7.23845 41.6355 7.99712 42.0007 8.69409 42.2305 9.36124 41.8388 9.97 42.057 11.0355 42.3685 11.6435 42.3685 11.6435 42.5838 11.6161 42.5999 11.5403 42.6646 11.1697 43.3416 11.0463 43.2315 10.8686 43.0965 10.4508 42.8923 9.58403 42.8923 9.19849 42.9341 8.58973 42.959 8.0551 42.865 7.41776 42.8107 7.3279 42.7565 7.23845 42.7022 7.15024 42.6198 6.82391 42.5395 6.49592 42.6074 6.12611 42.566 5.96336 42.4446 5.86025 42.4049 5.69708 42.4186 5.6213 42.4451 5.4747 42.4591 5.40057 42.6074 5.35502 42.7971 5.47511 42.9329 5.50452 43.0559 5.60763 42.9449 5.81386 43 5.90414 43.2157 6.26112 43.5417 6.40896 43.6087 6.80942 43.5963 6.88313 43.5678 7.0318 43.5566 7.10675 43.6112 7.58134 43.8937 7.95156 43.962 8.35326 43.9902 8.59056 43.7872 8.93055 43.8833 9.18524 44.1927 9.79193 44.2059 10.4893 44.1554 11.1722 44.0982 11.4687 44.4767 11.7056 44.3695 11.9139 44.2622 12.1222 44.3985 12.1508 44.2887 12.3603 44.2751 12.4349 44.1272 12.4771 44.114 12.5525 44.3157 12.9827 44.01 13.635 43.9417 14.006 43.9293 14.0802 44.1724 14.1593 44.2237 13.8868 44.2527 13.7219 44.5335 13.724 44.6813 13.6797 44.8461 13.5596 44.9662 13.278 44.953 12.9678ZM46.4099 14.45C46.4235 14.0727 46.6004 13.7977 46.532 13.3969 46.3983 12.9819 46.0918 13.394 45.8732 13.425 45.9966 13.9137 45.7949 14.2537 45.6442 14.684 45.5514 14.8181 45.4827 15.19 45.6992 15.1602 46.0376 15.2339 46.3991 14.9096 46.4099 14.45ZM45.8305 16.4812C45.915 16.3632 45.8752 16.1255 45.7539 16.0203 45.5651 15.9023 45.3216 16.0808 45.2126 16.2878 45.1037 16.4953 45.1857 16.8225 45.4711 16.8063 45.5381 16.8225 45.7349 16.6171 45.8305 16.4812Z" fill="#008BD0" transform="matrix(1 0 0 1.00534 651.01 384)"></path><path d="M41.852 3.82276C42.2107 4.09567 42.354 4.55162 42.638 4.92226L42.6091 5.07093C42.1109 5.50037 41.676 4.78726 41.5414 4.37272 41.3389 3.94245 41.1352 3.51217 40.7675 3.20075 40.7819 3.12787 40.7977 3.05208 40.8114 2.97754 40.6337 2.78332 40.4051 2.50296 40.6337 2.3986 40.7269 2.26566 40.8909 2.5336 41.0793 2.65038 41.3642 3.02268 41.4185 3.49685 41.852 3.82276Z" fill="#008BD0" transform="matrix(1 0 0 1.00534 651.01 384)"></path><path d="M43.8995 1.91904C43.9048 1.99359 43.7847 2.12196 43.7674 2.19526 43.5317 1.97868 43.2953 1.76002 43.0907 1.39642 43.0252 1.37613 42.8923 1.34217 42.8389 1.24982 42.7735 1.23201 42.7884 1.1583 42.8041 1.08624 43.0207 1.06471 43.1909 1.26597 43.3764 1.39228 43.4419 1.40926 43.5276 1.35418 43.5922 1.37116 43.7773 1.49705 43.8808 1.67968 43.8995 1.91904Z" fill="#008BD0" transform="matrix(1 0 0 1.00534 651.01 384)"></path><path d="M13.3666 15.5739C13.4312 15.6282 13.5277 15.7135 13.5795 15.7781 13.6896 15.8501 13.8019 15.8596 13.9187 15.8079 14.0309 15.8158 14.1307 16.1065 14.245 16.1139 14.4073 16.1905 14.5096 16.4796 14.6695 16.6175 14.778 16.6879 14.8906 16.7918 14.9991 16.8643 15.1527 17.0639 15.2534 17.2573 15.4136 17.3956 15.5176 17.5281 15.6886 17.4818 15.8033 17.4905 16.0241 17.57 16.1127 17.8888 16.2688 18.0885 16.3259 18.0926 16.4245 18.2881 16.422 18.3502 16.5289 18.4202 16.6332 18.5531 16.798 18.6285 16.8461 18.6964 16.8411 18.8194 16.8904 18.8865 17.2971 19.5433 17.8346 19.9595 18.1804 20.6726 18.1804 20.6726 18.2255 20.8014 18.2226 20.8639 18.6454 21.2718 18.8297 21.8479 19.1929 22.3133 19.2911 22.508 19.383 22.8264 19.4758 23.0828 19.581 23.2161 19.6899 23.2878 19.7917 23.4203 19.9425 23.682 20.0899 24.0058 20.123 24.3193 20.1143 24.4436 20.0311 24.8105 19.8182 24.6059 19.554 24.3351 19.583 23.9653 19.3143 23.7549 19.3201 23.6944 19.2468 23.5317 19.1933 23.4679 19.0848 23.3383 18.8902 23.3457 18.8471 23.1577 18.8612 22.971 18.6521 22.8198 18.5444 22.6902 18.2756 22.3055 17.8864 22.1622 17.5633 21.7746 17.505 21.7725 17.4482 21.7692 17.3894 21.8284 17.3298 21.9485 17.1525 22.1282 17.314 22.3216 17.5339 22.4562 17.6379 22.7101 17.9158 22.848 18.0806 22.9792 18.1224 23.3544 18.223 23.6696 18.3303 23.7984 18.44 23.928 18.6065 23.9992 18.7705 24.1297 18.7051 24.3289 18.8608 24.5285 18.855 24.5906 18.7958 24.6457 18.7887 24.7078 18.8898 24.9049 19.1192 24.8598 19.2757 25.0598 19.3967 24.9463 19.5627 25.0362 19.6617 25.2159 19.4778 25.389 19.5263 25.5166 19.4555 25.7004 19.2633 25.9941 19.6961 26.2777 19.9673 26.4239 20.1388 26.4376 20.1139 26.7482 20.275 26.884 20.3752 27.0807 20.6556 27.1027 20.8072 27.364 20.8564 27.4936 20.7376 27.5458 20.6726 27.665 20.6577 27.8522 20.8784 27.9309 20.9857 28.0017 21.0954 28.0738 21.1422 28.2038 21.1894 28.3309 21.0159 28.3777 20.6813 28.1475 20.514 28.1322 20.4071 28.0845 20.2034 27.8394 19.9855 27.7918 19.9114 27.7756 19.8605 27.9553 19.7789 27.9384 19.6779 27.9201 19.5665 27.8978 19.4555 27.8779 19.3358 27.8568 19.05 27.5412 18.925 27.5213 18.7833 27.4965 18.6119 27.7557 18.4744 27.7338 17.965 27.646 17.9464 27.612 17.7841 27.5445 17.5952 27.4692 17.4167 27.3809 17.2478 27.2853 17.1372 27.2256 17.1687 27.0791 17.0664 27.0136 16.9625 26.9465 16.7405 26.9478 16.637 26.8828 16.229 26.633 15.8439 26.069 15.4969 25.8876 15.265 25.7684 15.0728 25.652 14.8185 25.5282 14.6922 25.4503 14.6036 25.278 14.4471 25.225 13.9696 25.0639 13.5853 24.7608 13.0399 24.6076 12.005 24.3144 11.1473 24.9066 10.3054 25.3414 10.2615 25.3389 10.1721 25.3331 10.1257 25.3642 9.93273 25.5282 9.70289 25.6189 9.51281 25.7468 9.25067 25.9539 8.88831 26.0081 8.60008 26.1771 8.50732 26.2301 8.49945 26.3978 8.40876 26.4521 8.2721 26.5316 8.02942 26.5486 7.89442 26.6326 7.77142 26.7109 7.75651 26.8558 7.63642 26.944 7.39623 27.1387 7.16018 27.2977 6.83302 27.4522 6.64832 27.5458 5.09785 27.8112 4.83861 27.8145 4.43856 27.8212 4.16276 28.1512 3.56684 28.1496 2.66115 28.145 1.75422 28.126 1.00052 27.5665 0.841911 27.4282 0.81168 27.0521 0.704836 26.9817 0.380164 26.768 0.410809 26.3361 0.319288 26.016 0.214101 25.9456-0.0132519 25.9278 0.00124237 25.741 0.125893 24.8167 0.583499 23.9802 1.14174 23.3416 1.2726 23.1026 1.56331 23.0016 1.5865 22.6927 1.5865 22.6927 2.09132 21.9862 2.39611 21.7004 2.46154 21.5803 2.36298 21.3849 2.42759 21.266 2.89057 20.369 3.73 19.7528 4.4133 18.9357 4.59552 18.7647 4.72721 18.5249 5.01212 18.4864 5.12725 18.4951 5.23906 18.5034 5.30367 18.3854 5.43867 18.0847 5.67886 17.9178 5.859 17.8064 6.5129 17.3613 7.06327 16.6887 7.81201 16.5632 7.92755 16.5102 7.9938 16.3922 8.11183 16.338 8.23441 16.2232 8.45017 16.3645 8.56778 16.3123 9.12436 16.0617 9.63125 15.5226 10.2031 15.4443 10.3195 15.3929 10.3866 15.2741 10.4433 15.2761 10.9502 15.3196 11.549 14.8707 12.0249 15.3445 12.4543 15.2542 13.0966 15.3449 13.3666 15.5739ZM17.2523 21.013C17.2565 20.9505 17.2573 20.8888 17.2594 20.827 17.0382 20.692 16.9401 20.3139 16.661 20.2386 16.6051 20.2353 16.4883 20.2937 16.4862 20.3554 16.4713 20.7268 16.6307 20.9832 16.7873 21.3008 16.8544 21.0569 17.0229 21.0639 17.1298 21.2552 17.1873 21.1969 17.2499 21.0747 17.2523 21.013Z" fill="#3C9148" transform="matrix(1 0 0 1.00534 651.01 384)"></path></g></g></g><path d="M1600.75 327.317C1604.41 327.811 1607.08 329.725 1607.08 329.725 1615.86 340.418 1607.08 349.163 1607.08 349.163 1571.05 409.388 1494.06 407.441 1494.06 407.441 1427.79 409.388 1385.88 347.215 1385.88 347.215 1378.09 331.672 1389.78 327.811 1389.78 327.811 1400.5 323.917 1405.39 330.715 1405.39 329.725L1419.01 347.215C1452.15 383.153 1501.85 382.195 1501.85 382.195 1559.33 378.302 1588.57 333.619 1588.57 333.619 1592.46 327.811 1597.12 326.821 1600.75 327.317ZM1251.41 255.904 1295.26 255.904C1303.05 255.904 1308.89 261.745 1308.89 269.5 1308.89 276.298 1303.05 283.096 1295.26 283.096L1251.41 283.096C1244.58 283.096 1237.74 277.288 1237.74 269.5 1237.74 261.745 1243.62 255.904 1251.41 255.904ZM1157.85 255.904 1201.71 255.904C1209.5 255.904 1215.34 261.745 1215.34 269.5 1215.34 276.298 1209.5 283.096 1201.71 283.096L1157.85 283.096C1151.02 283.096 1144.22 277.288 1144.22 269.5 1144.22 261.745 1150.06 255.904 1157.85 255.904ZM1532.07 234.519C1539.86 234.519 1545.7 240.36 1545.7 248.148L1545.7 291.841C1545.7 299.629 1539.86 305.437 1532.07 305.437 1524.25 305.437 1518.41 299.629 1518.41 291.841L1518.41 248.148C1518.41 240.36 1524.25 234.519 1532.07 234.519ZM1464.82 234.519C1472.61 234.519 1478.45 240.36 1478.45 248.148L1478.45 291.841C1478.45 299.629 1472.61 305.437 1464.82 305.437 1457.99 305.437 1451.19 299.629 1451.19 291.841L1451.19 248.148C1451.19 240.36 1457.03 234.519 1464.82 234.519ZM1226.06 146.145C1301.1 144.197 1339.12 205.38 1339.12 205.38 1347.87 217.062 1338.13 224.818 1338.13 224.818 1326.45 232.606 1319.62 219.966 1319.62 219.966 1289.42 175.284 1238.73 172.347 1238.73 172.347 1173.43 168.486 1143.23 215.116 1143.23 215.116 1107.16 260.755 1129.6 316.129 1129.6 316.129 1149.07 372.493 1209.5 382.195 1209.5 382.195 1266.98 390.941 1302.06 354.014 1302.06 354.014 1338.13 323.917 1349.81 274.351 1349.81 274.351 1363.48 230.658 1381 209.274 1381 209.274 1420.96 154.89 1477.49 147.101 1477.49 147.101 1564.22 134.463 1608.07 206.37 1608.07 206.37 1608.07 206.37 1609.03 207.327 1609.03 208.317L1618.8 202.476C1619.76 202.476 1621.7 202.476 1622.69 202.476 1623.65 202.476 1624.64 204.423 1624.64 205.38L1626.59 255.904C1626.59 256.893 1625.6 257.851 1624.64 258.808 1623.65 258.808 1621.7 258.808 1620.74 258.808L1578.83 235.51C1577.84 235.51 1576.89 233.563 1576.89 232.606 1576.89 231.616 1577.84 230.658 1578.83 229.668L1589.56 222.87 1584.68 216.072C1554.48 170.433 1493.07 173.337 1493.07 173.337 1406.34 179.178 1378.09 276.298 1378.09 276.298 1376.15 284.086 1362.49 320.023 1362.49 320.023 1322.56 404.537 1239.69 409.388 1239.69 409.388 1146.17 414.239 1111.06 338.47 1111.06 338.47 1079.9 265.639 1116.93 209.274 1116.93 209.274 1156.86 144.197 1226.06 146.145 1226.06 146.145Z" fill="url(#fill4)" fill-rule="evenodd"></path><path d="M772.611 600.639 772.611 489.238C772.611 457.558 802.681 456.639 803.611 456.639L834.611 456.639 834.611 482.007 811.113 482.007C810.183 482.007 807.362 482.007 804.541 483.815 801.72 484.704 798.899 488.35 798.899 494.692L798.899 599.72 772.611 600.639 772.611 600.639Z" fill="#FFC000" fill-rule="evenodd"></path><path d="M1169.62 600.639 1169.62 489.238C1169.62 457.558 1140.03 456.639 1139.12 456.639L1108.62 456.639 1108.62 482.007 1131.74 482.007C1132.65 482.007 1135.43 482.007 1138.2 483.815 1140.98 484.704 1143.75 488.35 1143.75 494.692L1143.75 599.72 1169.62 600.639 1169.62 600.639Z" fill="#FFC000" fill-rule="evenodd"></path><path d="M960.608 456.639 985.608 456.639 985.608 600.639 960.608 600.639Z" fill="#FFC000" fill-rule="evenodd"></path><path d="M1320.61 456.639 1345.61 456.639 1345.61 600.639 1320.61 600.639Z" fill="#FFC000" fill-rule="evenodd"></path><path d="M1091.05 543.124C1083.81 525.359 1079.28 497.837 1079.28 459.639L1053.95 459.639C1053.95 497.837 1050.31 525.359 1042.18 543.124 1034.94 559.109 1024.09 568.007 1009.61 570.646L1009.61 594.639C1021.38 592.859 1031.34 588.41 1041.29 581.323 1052.13 572.425 1061.19 560.889 1066.61 546.683 1072.04 561.779 1080.2 573.315 1090.15 581.323 1099.18 589.3 1110.06 593.749 1123.61 594.639L1123.61 570.646C1108.24 568.007 1097.36 559.109 1091.05 543.124Z" fill="#FFC000" fill-rule="evenodd"></path><path d="M912.177 543.124C904.756 525.359 900.107 497.837 900.107 459.639L874.121 459.639C874.121 497.837 870.395 525.359 862.051 543.124 854.6 559.109 843.485 568.007 828.614 570.646L828.614 594.639C840.683 592.859 850.905 588.41 861.128 581.323 872.243 572.425 881.541 560.889 887.114 546.683 892.687 561.779 901.031 573.315 911.253 581.323 920.551 589.3 931.697 593.749 945.614 594.639L945.614 570.646C930.743 568.007 919.628 559.109 912.177 543.124Z" fill="#FFC000" fill-rule="evenodd"></path><path d="M684.15 569.369C671.465 569.369 666.908 562.163 666.015 554.036L666.015 536.924 666.015 531.496 666.015 514.353 666.015 499.02C666.015 486.416 676.884 481.908 683.257 481.908L757.614 481.908 757.614 456.639 685.043 456.639C683.257 456.639 640.614 458.448 640.614 499.02L640.614 514.353 640.614 531.496 640.614 536.924 640.614 554.956C640.614 554.956 640.614 571.179 651.483 582.924 658.749 591.02 670.541 594.639 685.043 594.639L757.614 594.639 757.614 569.369 684.15 569.369 684.15 569.369Z" fill="#FFC000" fill-rule="evenodd"></path><path d="M1272.51 456.639 1188.61 456.639 1188.61 481.908 1265.21 481.908C1266.13 481.908 1268.88 481.908 1271.62 483.686 1274.33 484.607 1277.07 488.195 1277.07 494.512L1277.07 525.179 1277.07 544.131 1277.07 549.528 1277.07 594.639 1302.61 594.639 1302.61 549.528 1302.61 544.131 1302.61 525.179 1302.61 488.195C1302.61 457.528 1273.44 456.639 1272.51 456.639Z" fill="#FFC000" fill-rule="evenodd"></path><path d="M1770.8 428 1764.3 428 1766.42 425.87 1766.42 414.643C1765.25 415.163 1764.11 415.53 1762.99 415.749 1761.71 416.023 1760.25 416.159 1758.61 416.159L1749.49 416.159 1749.49 395.958 1747 393.499 1759.31 393.499 1761.23 391.532 1764.54 395.835 1754.16 395.835 1754.16 413.782 1758.57 413.782C1760.21 413.782 1761.67 413.645 1762.95 413.372 1764.15 413.126 1765.3 412.744 1766.42 412.225L1766.42 391 1772.88 393.335 1770.8 395.465 1770.8 403.579 1773.58 403.579 1773.58 391 1780 393.335 1777.91 395.465 1777.91 425.869 1780 427.999 1771.41 427.999 1773.58 425.869 1773.58 405.915 1770.8 405.915 1770.8 428Z" fill="#FFC000" fill-rule="evenodd"></path><path d="M1788.88 390 1795.84 392.474 1793.62 394.705 1793.62 396.084 1798.1 396.084 1800.04 394.178 1803.37 398.436 1796.21 398.436C1797.64 399.166 1798.76 400.14 1799.59 401.356 1800.44 402.6 1800.86 403.953 1800.86 405.412 1800.86 407.657 1799.94 409.548 1798.1 411.09 1796.24 412.685 1793.94 413.483 1791.23 413.483 1788.48 413.483 1786.18 412.698 1784.31 411.131 1782.47 409.564 1781.55 407.657 1781.55 405.413 1781.55 403.899 1781.98 402.534 1782.83 401.317 1783.68 400.074 1784.84 399.114 1786.33 398.438L1783.36 398.438 1781.68 400.1 1779 396.085 1788.88 396.085 1788.88 390ZM1787.69 401.234C1786.81 402.344 1786.37 403.735 1786.37 405.412 1786.37 407.061 1786.81 408.44 1787.69 409.548 1788.62 410.711 1789.8 411.292 1791.23 411.292 1792.63 411.292 1793.78 410.711 1794.69 409.548 1795.59 408.44 1796.04 407.061 1796.04 405.412 1796.04 403.735 1795.59 402.344 1794.69 401.234 1793.78 400.099 1792.63 399.53 1791.23 399.53 1789.8 399.53 1788.62 400.099 1787.69 401.234ZM1793.7 417.983 1791.43 420.214 1791.43 425.648 1805.39 425.648 1807.66 423.418 1811.28 428 1786.74 428 1786.74 415.509 1793.7 417.983ZM1811.03 393.853 1808.77 396.084 1808.77 404.681 1811.73 404.681 1813.71 402.776 1817 407.034 1808.77 407.034 1808.77 418.876 1801.77 418.876 1804.07 416.605 1804.07 391.379 1811.03 393.853Z" fill="#FFC000" fill-rule="evenodd"></path><path d="M1828.83 396.302C1828.8 398.703 1829.1 400.821 1829.72 402.655 1830.57 405.271 1831.98 407.066 1833.97 408.037L1838.55 408.037 1835.77 411.558C1833.35 411.045 1831.22 409.994 1829.4 408.402 1827.79 406.999 1826.76 405.542 1826.29 404.032 1825.75 405.57 1824.69 407.026 1823.11 408.402 1821.26 409.994 1819.13 411.045 1816.74 411.558L1814 408.037 1818.57 408.037C1820.75 406.904 1822.26 404.921 1823.11 402.089 1823.9 399.445 1824.15 395.924 1823.88 391.527L1830.99 394.117 1828.83 396.302ZM1840.1 391 1847 393.468 1844.71 395.694 1844.71 413.864 1839.81 413.864C1841.34 414.566 1842.52 415.511 1843.36 416.698 1844.26 417.94 1844.71 419.328 1844.71 420.866 1844.71 423.267 1843.69 425.223 1841.65 426.734 1839.66 428.244 1837.13 429 1834.05 429 1830.92 429 1828.35 428.244 1826.33 426.734 1824.29 425.223 1823.27 423.267 1823.27 420.866 1823.27 418.465 1824.29 416.496 1826.33 414.958 1828.35 413.448 1830.92 412.692 1834.05 412.692 1834.79 412.692 1835.52 412.733 1836.26 412.814 1836.97 412.922 1837.65 413.071 1838.3 413.259L1840.1 411.559 1840.1 402.17 1837.07 402.17 1835.16 404.032 1831.85 399.782 1840.1 399.782 1840.1 391ZM1838.22 416.696C1837.13 415.456 1835.74 414.835 1834.05 414.835 1832.29 414.835 1830.86 415.456 1829.77 416.696 1828.76 417.857 1828.26 419.245 1828.26 420.865 1828.26 422.485 1828.76 423.859 1829.77 424.992 1830.86 426.233 1832.29 426.854 1834.05 426.854 1835.74 426.854 1837.13 426.233 1838.22 424.992 1839.23 423.859 1839.73 422.484 1839.73 420.865 1839.73 419.247 1839.23 417.858 1838.22 416.696Z" fill="#FFC000" fill-rule="evenodd"></path><path d="M1875.17 408.398 1877.41 406.127 1881 410.75 1851.22 410.75 1849.3 412.655 1846 408.397 1858.22 408.397 1858.22 399.07 1865.11 401.584 1862.87 403.774 1862.87 408.397 1875.17 408.397ZM1855.17 394.974 1853.25 396.921 1849.95 392.622 1869.76 392.622 1871.38 391 1876.19 394.082 1874.77 395.461 1874.77 405.56 1867.84 405.56 1870.12 403.249 1870.12 394.975 1855.17 394.975ZM1871.34 426.81C1869.31 428.269 1866.7 429 1863.52 429 1860.31 429 1857.71 428.27 1855.7 426.81 1853.66 425.322 1852.64 423.389 1852.64 421.01 1852.64 418.631 1853.66 416.698 1855.7 415.21 1857.73 413.723 1860.34 412.979 1863.52 412.979 1866.7 412.979 1869.31 413.723 1871.34 415.21 1873.38 416.698 1874.4 418.631 1874.4 421.01 1874.4 423.389 1873.38 425.322 1871.34 426.81ZM1867.88 416.996C1866.77 415.807 1865.31 415.211 1863.52 415.211 1861.7 415.211 1860.23 415.807 1859.12 416.996 1858.12 418.078 1857.61 419.415 1857.61 421.011 1857.61 422.607 1858.12 423.957 1859.12 425.067 1860.23 426.257 1861.7 426.851 1863.52 426.851 1865.31 426.851 1866.77 426.257 1867.88 425.067 1868.94 423.957 1869.47 422.607 1869.47 421.011 1869.47 419.415 1868.94 418.078 1867.88 416.996Z" fill="#FFC000" fill-rule="evenodd"></path><path d="M1885.25 409.635C1883.97 408.299 1883.34 406.663 1883.34 404.726 1883.34 403.444 1883.62 402.286 1884.19 401.249 1884.73 400.241 1885.52 399.396 1886.55 398.714L1884.8 398.714 1883.13 400.39 1880.53 396.34 1890.21 396.34 1890.21 390 1896.79 392.209 1894.88 394.214 1894.88 396.34 1898.26 396.34 1900.5 394.091 1903.83 398.712 1898.5 398.712C1899.51 399.394 1900.29 400.239 1900.86 401.248 1901.46 402.285 1901.76 403.443 1901.76 404.725 1901.76 406.661 1901.09 408.297 1899.76 409.634 1898.54 410.888 1896.92 411.706 1894.88 412.088L1894.88 416.588 1905.05 416.588 1905.05 391.064 1911.92 393.559 1909.64 395.809 1909.64 425.669 1912 428 1902.69 428 1905.05 425.669 1905.05 418.961 1885.2 418.961 1883.13 421.047 1880 416.588 1890.21 416.588 1890.21 412.088C1888.15 411.708 1886.49 410.889 1885.25 409.635ZM1889.35 400.676C1888.51 401.658 1888.09 403.007 1888.09 404.726 1888.09 406.444 1888.51 407.793 1889.35 408.776 1890.14 409.703 1891.21 410.166 1892.56 410.166 1893.87 410.166 1894.91 409.703 1895.7 408.776 1896.54 407.794 1896.96 406.444 1896.96 404.726 1896.96 403.007 1896.54 401.659 1895.7 400.676 1894.91 399.776 1893.87 399.326 1892.56 399.326 1891.21 399.326 1890.14 399.776 1889.35 400.676Z" fill="#FFC000" fill-rule="evenodd"></path><path d="M1924.29 414.063 1924.29 425.677 1926.68 428 1917.17 428 1919.55 425.677 1919.55 414.063 1915.36 414.063 1913.4 416.055 1910 411.658 1940.01 411.658 1942.31 409.376 1946 414.063 1936.32 414.063 1936.32 425.636 1938.67 427.959 1929.19 427.959 1931.54 425.636 1931.54 414.063 1924.29 414.063ZM1937.03 405.518C1934.66 407.315 1931.64 408.215 1927.98 408.215 1924.32 408.215 1921.32 407.33 1918.97 405.559 1916.79 403.873 1915.7 401.868 1915.7 399.545 1915.7 397.222 1916.79 395.245 1918.97 393.613 1921.32 391.87 1924.32 391 1927.98 391 1931.67 391 1934.69 391.858 1937.03 393.571 1939.24 395.204 1940.34 397.181 1940.34 399.504 1940.34 401.854 1939.24 403.859 1937.03 405.518ZM1933.39 395.23C1932.02 393.876 1930.22 393.198 1927.98 393.198 1925.75 393.198 1923.94 393.876 1922.58 395.23 1921.4 396.448 1920.81 397.886 1920.81 399.545 1920.81 401.26 1921.4 402.726 1922.58 403.942 1923.92 405.297 1925.72 405.974 1927.98 405.974 1930.22 405.974 1932.02 405.284 1933.39 403.9 1934.62 402.684 1935.23 401.218 1935.23 399.504 1935.23 397.872 1934.62 396.448 1933.39 395.23Z" fill="#FFC000" fill-rule="evenodd"></path><path d="M1963.43 391.532 1966.79 395.835 1958.44 395.835C1958.44 400.424 1958.72 404.139 1959.28 406.98 1960.02 410.695 1961.3 413.141 1963.09 414.314L1967.66 414.314 1964.88 417.88C1962.47 417.47 1960.38 416.132 1958.61 413.864 1957.03 411.896 1956.12 409.862 1955.87 407.758 1955.57 409.862 1954.64 411.896 1953.09 413.864 1951.29 416.132 1949.2 417.47 1946.82 417.88L1944 414.314 1948.65 414.314C1950.31 413.249 1951.55 410.832 1952.38 407.062 1953.08 403.947 1953.42 400.205 1953.42 395.835L1950.23 395.835 1948.28 397.76 1944.91 393.498 1961.48 393.498 1963.43 391.532ZM1976.92 393.499 1974.59 395.753 1974.59 425.665 1977 428 1967.49 428 1969.9 425.665 1969.9 391 1976.92 393.499Z" fill="#FFC000" fill-rule="evenodd"></path><path d="M1991.03 391.532 1994.36 395.835 1987.21 395.835C1987.24 401.079 1987.46 404.876 1987.87 407.226 1988.45 410.586 1989.55 412.949 1991.2 414.314L1995.11 414.314 1992.27 417.88C1990.02 417.198 1988.23 415.736 1986.88 413.496 1986.01 412.047 1985.39 410.423 1985.03 408.62 1984.51 410.505 1983.85 412.13 1983.06 413.496 1981.69 415.764 1979.92 417.224 1977.75 417.88L1975 414.314 1978.91 414.314C1980.38 412.894 1981.44 410.531 1982.07 407.226 1982.62 404.412 1982.91 400.616 1982.94 395.835L1981.09 395.835 1979.15 397.76 1975.82 393.498 1989.1 393.498 1991.03 391.532ZM1999.75 428 1993.21 428 1995.35 425.87 1995.35 391 2001.85 393.335 1999.75 395.465 1999.75 403.579 2002.55 403.579 2002.55 391 2009 393.335 2006.9 395.465 2006.9 425.869 2009 427.999 2000.37 427.999 2002.55 425.869 2002.55 405.915 1999.75 405.915 1999.75 428Z" fill="#FFC000" fill-rule="evenodd"></path><path d="M2038.18 393.499 2035.97 395.753 2035.97 403.292 2038.86 403.292 2040.79 401.367 2044 405.67 2035.97 405.67 2035.97 417.634 2029.15 417.634 2031.4 415.339 2031.4 409.152C2029.61 410.246 2028.08 410.915 2026.82 411.16 2025.78 411.38 2023.65 411.488 2020.44 411.488L2010.45 411.488 2010.45 395.958 2008 393.499 2022.65 393.499 2024.54 391.532 2027.79 395.835 2015.02 395.835 2015.02 409.11 2022.73 409.11C2024.79 409.11 2026.27 408.987 2027.18 408.741 2028.28 408.441 2029.68 407.771 2031.4 406.733L2031.4 391 2038.18 393.499ZM2021.29 417.019 2019.08 419.191 2019.08 425.624 2032.68 425.624 2034.89 423.37 2038.42 428 2014.5 428 2014.5 414.479 2021.29 417.019Z" fill="#FFC000" fill-rule="evenodd"></path><path d="M2069.18 424.089C2069.18 424.089 2068.78 424.306 2068.92 424.629 2068.92 424.629 2068.47 424.603 2068.78 425.008 2068.78 425.008 2068.97 425.195 2068.76 425.251 2068.76 425.251 2068.6 425.465 2068.81 425.545 2068.81 425.545 2069.05 425.761 2068.81 425.815 2068.81 425.815 2068.57 425.978 2069 426.275 2069 426.275 2069.21 426.679 2069.48 426.275 2069.48 426.275 2069.93 425.896 2069.72 425.79 2069.72 425.79 2069.34 425.709 2069.72 425.493 2069.72 425.493 2069.93 425.356 2069.72 425.169 2069.72 425.169 2069.45 425.195 2069.72 424.897 2069.72 424.897 2069.98 424.574 2069.5 424.549 2069.5 424.549 2069.69 424.225 2069.18 424.089ZM2065.97 421.554C2065.97 421.554 2065.57 421.77 2065.7 422.094 2065.7 422.094 2065.25 422.067 2065.57 422.472 2065.57 422.472 2065.75 422.659 2065.54 422.715 2065.54 422.715 2065.38 422.929 2065.6 423.009 2065.6 423.009 2065.83 423.225 2065.6 423.279 2065.6 423.279 2065.36 423.442 2065.78 423.739 2065.78 423.739 2065.99 424.143 2066.26 423.739 2066.26 423.739 2066.71 423.361 2066.5 423.254 2066.5 423.254 2066.13 423.173 2066.5 422.956 2066.5 422.956 2066.71 422.821 2066.5 422.633 2066.5 422.633 2066.23 422.659 2066.5 422.362 2066.5 422.362 2066.76 422.038 2066.29 422.013 2066.29 422.013 2066.47 421.689 2065.97 421.554ZM2072.36 421.454C2072.36 421.454 2071.96 421.669 2072.09 421.992 2072.09 421.992 2071.64 421.967 2071.96 422.37 2071.96 422.37 2072.15 422.56 2071.94 422.613 2071.94 422.613 2071.78 422.83 2071.99 422.91 2071.99 422.91 2072.23 423.126 2071.99 423.179 2071.99 423.179 2071.75 423.341 2072.18 423.638 2072.18 423.638 2072.39 424.043 2072.65 423.638 2072.65 423.638 2073.11 423.26 2072.89 423.153 2072.89 423.153 2072.52 423.072 2072.89 422.855 2072.89 422.855 2073.11 422.721 2072.89 422.532 2072.89 422.532 2072.63 422.56 2072.89 422.264 2072.89 422.264 2073.16 421.938 2072.68 421.911 2072.68 421.911 2072.87 421.588 2072.36 421.454ZM2061.61 416.967C2061.61 416.967 2061.21 417.185 2061.34 417.508 2061.34 417.508 2060.89 417.481 2061.21 417.887 2061.21 417.887 2061.4 418.074 2061.18 418.129 2061.18 418.129 2061.02 418.345 2061.24 418.425 2061.24 418.425 2061.48 418.64 2061.24 418.696 2061.24 418.696 2061 418.857 2061.42 419.154 2061.42 419.154 2061.63 419.558 2061.9 419.154 2061.9 419.154 2062.35 418.775 2062.14 418.669 2062.14 418.669 2061.77 418.587 2062.14 418.372 2062.14 418.372 2062.35 418.236 2062.14 418.048 2062.14 418.048 2061.87 418.074 2062.14 417.776 2062.14 417.776 2062.41 417.453 2061.93 417.426 2061.93 417.426 2062.11 417.105 2061.61 416.967ZM2076.57 416.834C2076.57 416.834 2076.17 417.049 2076.31 417.372 2076.31 417.372 2075.85 417.346 2076.17 417.75 2076.17 417.75 2076.36 417.939 2076.15 417.993 2076.15 417.993 2075.99 418.209 2076.2 418.29 2076.2 418.29 2076.44 418.506 2076.2 418.559 2076.2 418.559 2075.96 418.721 2076.39 419.018 2076.39 419.018 2076.6 419.422 2076.87 419.018 2076.87 419.018 2077.32 418.64 2077.1 418.533 2077.1 418.533 2076.73 418.452 2077.1 418.236 2077.1 418.236 2077.32 418.101 2077.1 417.912 2077.1 417.912 2076.84 417.939 2077.1 417.643 2077.1 417.643 2077.37 417.318 2076.89 417.291 2076.89 417.291 2077.08 416.967 2076.57 416.834ZM2061.56 410.332C2061.55 410.332 2061.16 410.549 2061.29 410.873 2061.29 410.873 2060.84 410.847 2061.16 411.251 2061.16 411.251 2061.34 411.437 2061.13 411.493 2061.13 411.493 2060.97 411.707 2061.18 411.791 2061.18 411.791 2061.42 412.004 2061.18 412.059 2061.18 412.059 2060.94 412.22 2061.37 412.517 2061.37 412.517 2061.58 412.922 2061.85 412.517 2061.85 412.517 2062.3 412.14 2062.09 412.033 2062.09 412.033 2061.72 411.951 2062.09 411.735 2062.09 411.735 2062.3 411.6 2062.09 411.413 2062.09 411.413 2061.82 411.437 2062.09 411.142 2062.09 411.142 2062.35 410.819 2061.87 410.791 2061.87 410.791 2062.06 410.467 2061.56 410.332ZM2065.89 410.251C2065.89 410.252 2065.49 410.468 2065.62 410.791 2065.62 410.791 2065.17 410.765 2065.49 411.169 2065.49 411.169 2065.68 411.356 2065.46 411.412 2065.46 411.412 2065.3 411.629 2065.52 411.707 2065.52 411.707 2065.75 411.923 2065.52 411.977 2065.52 411.977 2065.28 412.139 2065.7 412.436 2065.7 412.436 2065.91 412.84 2066.18 412.436 2066.18 412.436 2066.63 412.058 2066.42 411.95 2066.42 411.95 2066.05 411.87 2066.42 411.653 2066.42 411.653 2066.63 411.518 2066.42 411.331 2066.42 411.331 2066.15 411.355 2066.42 411.06 2066.42 411.06 2066.69 410.736 2066.21 410.709 2066.21 410.709 2066.39 410.386 2065.89 410.251ZM2076.6 410.198C2076.6 410.198 2076.2 410.414 2076.33 410.736 2076.33 410.736 2075.88 410.711 2076.2 411.114 2076.2 411.114 2076.39 411.303 2076.17 411.357 2076.17 411.357 2076.01 411.573 2076.23 411.654 2076.23 411.654 2076.47 411.871 2076.23 411.924 2076.23 411.924 2075.99 412.085 2076.41 412.382 2076.41 412.382 2076.62 412.786 2076.89 412.382 2076.89 412.382 2077.34 412.004 2077.13 411.897 2077.13 411.897 2076.76 411.816 2077.13 411.6 2077.13 411.6 2077.34 411.465 2077.13 411.276 2077.13 411.276 2076.86 411.303 2077.13 411.008 2077.13 411.008 2077.4 410.684 2076.92 410.656 2076.92 410.656 2077.1 410.332 2076.6 410.198ZM2072.13 410.198C2072.13 410.198 2071.73 410.414 2071.87 410.736 2071.87 410.736 2071.42 410.711 2071.73 411.114 2071.73 411.114 2071.92 411.303 2071.71 411.357 2071.71 411.357 2071.55 411.573 2071.76 411.654 2071.76 411.654 2072 411.871 2071.76 411.924 2071.76 411.924 2071.52 412.085 2071.95 412.382 2071.95 412.382 2072.16 412.786 2072.43 412.382 2072.43 412.382 2072.88 412.004 2072.66 411.897 2072.66 411.897 2072.29 411.816 2072.66 411.6 2072.66 411.6 2072.88 411.465 2072.66 411.276 2072.66 411.276 2072.4 411.303 2072.66 411.008 2072.66 411.008 2072.93 410.684 2072.45 410.656 2072.45 410.656 2072.64 410.332 2072.13 410.198ZM2067.59 409.683C2067.41 409.681 2067.22 409.723 2067.05 409.833 2067.05 409.833 2066.45 410.029 2067.12 410.2 2067.12 410.2 2067.74 410.663 2067.82 411.542 2067.82 411.542 2068.08 413.863 2067.6 413.716 2067.6 413.716 2064.76 414.057 2064.33 413.276 2064.33 413.276 2063.8 412.519 2063.82 413.546 2063.82 413.546 2063.87 414.45 2064.35 414.84 2064.35 414.84 2064.93 415.207 2064.28 415.352 2064.28 415.352 2063.41 416.16 2063.89 417.161 2063.89 417.161 2064.13 417.795 2064.28 417.137 2064.28 417.136 2065.14 415.916 2067.82 416.621 2067.82 416.621 2068.2 419.822 2067.17 419.945 2067.17 419.945 2065.99 420.187 2066.9 420.603 2066.9 420.603 2068.23 421.019 2068.9 420.334 2068.9 420.334 2069.12 419.869 2069.48 420.359 2069.48 420.359 2069.79 420.848 2071.09 420.701 2071.09 420.701 2071.86 420.628 2071.4 420.31 2071.4 420.31 2070.37 419.919 2070.44 417.989 2070.44 417.989 2070.15 416.036 2070.68 416.281 2070.68 416.281 2073.38 416.012 2073.69 416.646 2073.69 416.646 2074.15 417.868 2074.34 416.62 2074.34 416.62 2074.36 415.669 2073.93 415.132 2073.93 415.132 2073.45 414.814 2073.91 414.521 2073.91 414.521 2074.46 414.034 2074.39 413.179 2074.39 413.179 2074.2 412.103 2073.83 412.813 2073.83 412.813 2073.5 413.716 2072.58 413.668L2070.39 413.423C2070.39 413.423 2070.05 411.054 2070.87 410.321 2070.87 410.321 2071.89 409.833 2070.78 409.735 2070.78 409.735 2069.72 409.613 2069.12 410.567 2069.12 410.567 2068.37 409.696 2067.59 409.683ZM2085.1 407.579 2084.93 407.594C2084.85 407.6 2084.76 407.605 2084.68 407.607L2084.65 407.607 2084.65 407.76C2084.63 408.492 2084.59 409.224 2084.61 409.956L2084.61 410.028 2084.67 410.089C2084.67 410.089 2084.68 410.097 2084.7 410.115 2084.76 410.177 2084.93 410.278 2084.96 410.264 2084.96 410.264 2084.97 410.264 2084.96 410.264L2084.97 410.264C2084.98 410.265 2084.99 410.269 2085.06 410.116L2085.2 409.698 2085.24 409.739 2085.25 409.687C2085.39 409.084 2085.33 408.421 2085.17 407.824L2085.1 407.579ZM2083.94 407.572 2083.95 407.691C2083.96 408.397 2083.7 409.267 2083.99 409.872L2084 409.878 2084.07 409.889C2084.18 409.911 2084.23 409.953 2084.27 409.987L2084.31 410.013 2084.31 409.939C2084.29 409.207 2084.33 408.476 2084.35 407.744 2084.35 407.698 2084.35 407.652 2084.35 407.605L2084.18 407.597 2083.94 407.572ZM2052.9 407.558 2052.83 407.803C2052.67 408.4 2052.61 409.063 2052.75 409.665L2052.76 409.718 2052.8 409.677 2052.94 410.095C2053.01 410.248 2053.02 410.244 2053.03 410.243L2053.04 410.243C2053.03 410.243 2053.04 410.243 2053.04 410.243 2053.07 410.257 2053.24 410.156 2053.3 410.094 2053.32 410.076 2053.33 410.068 2053.33 410.068L2053.39 410.007 2053.39 409.934C2053.41 409.203 2053.37 408.471 2053.35 407.739L2053.35 407.586 2053.32 407.586C2053.24 407.583 2053.15 407.579 2053.07 407.573L2052.9 407.558ZM2065.97 407.553C2065.97 407.554 2065.57 407.771 2065.7 408.094 2065.7 408.094 2065.25 408.067 2065.57 408.473 2065.57 408.473 2065.75 408.66 2065.54 408.716 2065.54 408.716 2065.38 408.93 2065.6 409.01 2065.6 409.01 2065.83 409.226 2065.6 409.28 2065.6 409.28 2065.36 409.442 2065.78 409.739 2065.78 409.739 2065.99 410.144 2066.26 409.739 2066.26 409.739 2066.71 409.361 2066.5 409.252 2066.5 409.252 2066.13 409.171 2066.5 408.957 2066.5 408.957 2066.71 408.821 2066.5 408.633 2066.5 408.633 2066.23 408.659 2066.5 408.361 2066.5 408.361 2066.76 408.038 2066.29 408.013 2066.29 408.013 2066.47 407.689 2065.97 407.553ZM2061.53 407.553C2061.53 407.554 2061.13 407.771 2061.26 408.094 2061.26 408.094 2060.81 408.067 2061.13 408.473 2061.13 408.473 2061.32 408.66 2061.1 408.716 2061.1 408.716 2060.94 408.93 2061.16 409.01 2061.16 409.01 2061.4 409.226 2061.16 409.28 2061.16 409.28 2060.92 409.442 2061.34 409.739 2061.34 409.739 2061.56 410.144 2061.82 409.739 2061.82 409.739 2062.27 409.361 2062.06 409.252 2062.06 409.252 2061.69 409.171 2062.06 408.957 2062.06 408.957 2062.27 408.821 2062.06 408.633 2062.06 408.633 2061.8 408.659 2062.06 408.361 2062.06 408.361 2062.33 408.038 2061.85 408.013 2061.85 408.013 2062.03 407.689 2061.53 407.553ZM2054.06 407.551 2053.82 407.576 2053.65 407.584C2053.65 407.63 2053.65 407.677 2053.65 407.723 2053.67 408.455 2053.71 409.186 2053.7 409.918L2053.69 409.991 2053.73 409.966C2053.77 409.932 2053.82 409.89 2053.93 409.868L2054 409.857 2054.01 409.851C2054.3 409.246 2054.04 408.376 2054.05 407.67L2054.06 407.551ZM2085.61 407.512 2085.42 407.541 2085.41 407.543 2085.42 407.59C2085.64 408.338 2085.72 409.169 2085.5 409.922L2085.48 409.98 2085.51 410.005C2085.51 410.005 2085.51 410.009 2085.53 410.021 2085.56 410.054 2085.65 410.102 2085.68 410.112L2085.69 410.114 2085.69 410.114 2085.69 410.114 2085.69 410.114 2085.7 410.102C2085.72 410.082 2085.74 410.038 2085.76 409.956L2085.91 409.431 2085.92 409.443 2085.94 409.219C2085.97 408.667 2085.9 408.139 2085.66 407.62L2085.61 407.512ZM2052.4 407.491 2052.34 407.599C2052.1 408.118 2052.03 408.646 2052.06 409.198L2052.08 409.422 2052.09 409.41 2052.24 409.935C2052.26 410.017 2052.28 410.061 2052.3 410.08L2052.31 410.092 2052.31 410.093 2052.31 410.093 2052.31 410.092 2052.32 410.091C2052.35 410.081 2052.44 410.033 2052.47 410 2052.49 409.987 2052.49 409.984 2052.49 409.984L2052.52 409.959 2052.5 409.901C2052.28 409.148 2052.36 408.317 2052.58 407.569L2052.59 407.522 2052.58 407.52 2052.4 407.491ZM2076.6 407.475C2076.6 407.474 2076.2 407.69 2076.33 408.014 2076.33 408.014 2075.88 407.986 2076.2 408.392 2076.2 408.392 2076.39 408.578 2076.17 408.634 2076.17 408.634 2076.01 408.849 2076.23 408.93 2076.23 408.93 2076.47 409.146 2076.23 409.201 2076.23 409.201 2075.99 409.362 2076.41 409.66 2076.41 409.66 2076.62 410.064 2076.89 409.66 2076.89 409.66 2077.34 409.281 2077.13 409.173 2077.13 409.173 2076.76 409.093 2077.13 408.877 2077.13 408.877 2077.34 408.741 2077.13 408.555 2077.13 408.555 2076.86 408.579 2077.13 408.282 2077.13 408.282 2077.4 407.958 2076.92 407.934 2076.92 407.934 2077.1 407.61 2076.6 407.475ZM2072.16 407.475C2072.16 407.474 2071.76 407.69 2071.89 408.014 2071.89 408.014 2071.44 407.986 2071.76 408.392 2071.76 408.392 2071.95 408.578 2071.73 408.634 2071.73 408.634 2071.57 408.849 2071.79 408.93 2071.79 408.93 2072.03 409.146 2071.79 409.201 2071.79 409.201 2071.55 409.362 2071.97 409.66 2071.97 409.66 2072.19 410.064 2072.45 409.66 2072.45 409.66 2072.9 409.281 2072.69 409.173 2072.69 409.173 2072.32 409.093 2072.69 408.877 2072.69 408.877 2072.9 408.741 2072.69 408.555 2072.69 408.555 2072.42 408.579 2072.69 408.282 2072.69 408.282 2072.96 407.958 2072.48 407.934 2072.48 407.934 2072.66 407.61 2072.16 407.475ZM2083.36 407.432 2083.36 407.457C2083.18 408.294 2083.15 409.138 2083.33 409.974L2083.37 410.127 2083.41 410.143C2083.49 410.169 2083.59 410.192 2083.65 410.19L2083.65 410.19C2083.66 410.137 2083.68 410.081 2083.72 410.022L2083.72 410.019 2083.69 409.952C2083.41 409.249 2083.71 408.318 2083.63 407.556L2083.63 407.513 2083.58 407.501C2083.54 407.491 2083.51 407.48 2083.47 407.468L2083.36 407.432ZM2054.64 407.41 2054.53 407.447C2054.49 407.459 2054.46 407.469 2054.42 407.48L2054.37 407.491 2054.37 407.535C2054.29 408.297 2054.59 409.228 2054.31 409.931L2054.28 409.998 2054.28 410.001C2054.32 410.06 2054.34 410.116 2054.35 410.169L2054.35 410.169C2054.41 410.171 2054.51 410.148 2054.59 410.121L2054.64 410.106 2054.67 409.953C2054.85 409.117 2054.82 408.273 2054.64 407.436L2054.64 407.41ZM2086.17 407.402 2086.1 407.418 2085.92 407.456 2085.92 407.459C2086.23 408.125 2086.3 408.796 2086.22 409.519L2086.18 409.774 2086.24 409.854C2086.24 409.854 2086.25 409.863 2086.27 409.882 2086.3 409.915 2086.35 409.962 2086.4 409.995 2086.43 410.022 2086.46 410.031 2086.48 410.036 2086.49 410.02 2086.52 409.978 2086.55 409.882 2086.58 409.761 2086.62 409.566 2086.63 409.284 2086.62 409.221 2086.59 409.031 2086.53 408.745 2086.46 408.432 2086.36 408.013 2086.21 407.539L2086.17 407.402ZM2051.83 407.381 2051.79 407.518C2051.64 407.992 2051.54 408.411 2051.47 408.723 2051.41 409.01 2051.38 409.2 2051.37 409.263 2051.38 409.545 2051.42 409.74 2051.45 409.861 2051.48 409.957 2051.51 409.999 2051.52 410.015 2051.54 410.01 2051.57 410.001 2051.6 409.974 2051.65 409.941 2051.7 409.894 2051.73 409.861 2051.75 409.842 2051.76 409.833 2051.76 409.833L2051.82 409.753 2051.78 409.498C2051.7 408.775 2051.77 408.104 2052.08 407.438L2052.09 407.435 2051.9 407.397 2051.83 407.381ZM2082.94 407.203 2082.92 407.303C2082.91 407.413 2082.9 407.545 2082.88 407.697 2082.83 408.16 2082.78 408.798 2082.79 409.49 2082.79 409.723 2082.79 409.959 2082.8 410.197L2082.81 410.197C2082.86 410.197 2082.92 410.188 2082.99 410.129L2083.04 410.085 2083.04 410.063C2082.85 409.184 2082.86 408.294 2083.06 407.413L2083.08 407.298 2083.06 407.285C2083.03 407.266 2083 407.246 2082.97 407.226L2082.94 407.203ZM2055.06 407.182 2055.03 407.204C2055 407.225 2054.97 407.245 2054.94 407.264L2054.92 407.277 2054.95 407.392C2055.14 408.273 2055.15 409.163 2054.96 410.042L2054.96 410.064 2055.01 410.108C2055.09 410.167 2055.14 410.176 2055.19 410.176L2055.2 410.176C2055.21 409.938 2055.21 409.702 2055.21 409.469 2055.22 408.777 2055.17 408.139 2055.12 407.676 2055.1 407.524 2055.09 407.391 2055.08 407.282L2055.06 407.182ZM2082.93 406.423C2082.93 406.445 2082.92 406.472 2082.92 406.507 2082.92 406.564 2082.93 406.64 2082.95 406.736L2082.97 406.819 2082.93 406.785C2082.91 406.775 2082.84 406.752 2082.84 406.756 2082.85 406.76 2082.92 406.77 2082.95 406.807 2083.35 407.251 2084.12 407.263 2084.67 407.254 2085.2 407.245 2085.73 407.192 2086.24 407.068L2086.26 407.066 2086.24 407.065C2086.23 407.065 2086.22 407.067 2086.21 407.069L2086.18 407.076 2086.18 407.064C2086.21 406.993 2086.25 406.862 2086.25 406.777 2086.24 406.712 2086.25 406.705 2086.24 406.698 2086.06 406.709 2085.6 406.736 2085.07 406.736 2084.65 406.736 2084.18 406.721 2083.77 406.66 2083.45 406.612 2083.16 406.554 2082.93 406.423ZM2055.07 406.402C2054.84 406.533 2054.55 406.591 2054.23 406.639 2053.82 406.7 2053.35 406.715 2052.93 406.715 2052.4 406.715 2051.94 406.688 2051.76 406.677 2051.75 406.684 2051.76 406.691 2051.75 406.755 2051.75 406.841 2051.79 406.971 2051.82 407.043L2051.82 407.055 2051.79 407.048C2051.78 407.046 2051.77 407.044 2051.76 407.044L2051.74 407.045 2051.76 407.047C2052.27 407.171 2052.8 407.224 2053.33 407.233 2053.88 407.242 2054.65 407.23 2055.05 406.786 2055.08 406.749 2055.15 406.738 2055.16 406.735 2055.16 406.731 2055.09 406.754 2055.07 406.764L2055.03 406.797 2055.05 406.715C2055.07 406.619 2055.08 406.543 2055.08 406.486 2055.08 406.451 2055.07 406.424 2055.07 406.402ZM2065.96 404.015C2066.46 404.003 2067.03 404.538 2067.03 404.538 2067.37 405.678 2068.26 405.055 2068.26 405.055 2068.74 403.528 2069.86 404.667 2069.86 404.667 2070.55 405.806 2071.22 404.849 2071.22 404.849 2072.13 403.814 2072.75 404.332 2072.75 404.332 2073.87 405.988 2074.68 404.642 2074.68 404.642 2075.81 404.021 2076.32 405.055 2076.32 405.055 2076.93 406.4 2078.41 405.427 2078.41 405.427 2080.28 405.743 2079.16 407.135 2079.16 407.135 2077.79 408.402 2079.27 409.197 2079.27 409.197 2080.29 409.611 2079.78 410.647 2079.78 410.647 2078.97 411.266 2079.27 411.784 2079.27 411.784 2080.8 412.82 2079.58 413.647 2079.58 413.647 2077.95 414.476 2079.17 415.408 2079.17 415.408 2079.58 416.546 2078.66 416.857 2078.66 416.857 2077.54 416.442 2077.74 418.099 2077.74 418.099 2078.56 418.824 2077.54 419.65 2077.54 419.65 2076.01 419.65 2076.52 420.894 2076.52 420.894 2077.34 421.619 2076.21 422.548 2076.21 422.548 2075.19 422.548 2075.29 423.585 2075.29 423.585 2075.81 425.344 2074.28 425.344 2074.28 425.344 2072.74 425.034 2073.15 426.483 2073.15 426.483 2073.23 428.788 2071.55 427.712 2071.55 427.712L2070.11 428.535C2070.3 429.611 2069.61 429.928 2069.61 429.928 2067.87 430.181 2068.16 428.245 2068.16 428.245 2067.95 427.209 2066.83 427.52 2066.83 427.52 2065.19 427.903 2065.25 426.509 2065.25 426.509 2065.75 425.37 2064.89 425.346 2064.89 425.346 2063.26 425.658 2063.46 424.208 2063.46 424.208 2064.06 422.901 2062.94 422.839 2062.94 422.839 2061.69 422.901 2061.94 421.826 2061.94 421.826 2062.14 420.377 2061.02 420.275 2061.02 420.275 2059.69 420.068 2060.1 418.825 2060.1 418.825 2060.71 417.893 2059.79 417.168 2059.79 417.168 2058.33 416.76 2058.98 415.513 2058.98 415.513 2060.2 414.891 2059.18 413.856 2059.18 413.856 2057.95 413.405 2058.57 412.51 2058.57 412.51 2060 411.58 2058.77 410.648 2058.77 410.648 2057.35 409.51 2059.18 408.887 2059.18 408.887 2060.26 408.403 2059.39 407.335 2059.39 407.335 2058.26 405.782 2059.79 405.368 2059.79 405.368 2060.3 405.368 2060.91 405.678 2060.91 405.677 2062.04 405.988 2062.34 405.055 2062.34 405.055 2063.26 404.021 2063.77 404.849 2063.77 404.849 2064.69 405.47 2065.3 404.642 2065.3 404.642 2065.44 404.179 2065.69 404.022 2065.96 404.015ZM2055.81 402.158 2055.81 409.818C2055.81 409.818 2054.59 425.657 2068.97 432.592 2068.97 432.592 2083.35 426.588 2082.13 407.438L2082.13 402.261 2057.98 402.166 2057.31 402.166 2057.3 402.164 2055.81 402.158ZM2066.86 400.178 2065.11 400.374C2065.11 400.374 2064.98 400.545 2065.13 400.568L2065.63 400.546C2065.63 400.546 2065.76 400.618 2065.8 400.838 2065.8 400.838 2065.95 401.204 2065.47 401.278 2065.47 401.278 2063.3 401.571 2063.2 401.472 2063.2 401.472 2063.16 401.057 2063.23 400.912 2063.23 400.912 2063.3 400.692 2063.52 400.716 2063.52 400.716 2063.83 400.788 2063.88 400.666 2063.88 400.666 2063.88 400.471 2063.78 400.496 2063.78 400.496 2063.45 400.524 2063.19 400.587L2063.13 400.602 2063.09 400.838C2063.05 401.164 2063.03 401.484 2063.03 401.707 2063.92 401.579 2066.57 401.236 2069.52 401.236 2071.36 401.236 2073.33 401.369 2075.06 401.779L2075.06 401.768C2075.06 401.553 2075 401.2 2074.93 400.851L2074.9 400.695 2074.9 400.694C2074.77 400.667 2074.54 400.626 2074.37 400.644 2074.37 400.644 2074.27 400.668 2074.3 400.767 2074.3 400.767 2074.71 400.791 2074.71 400.914 2074.71 400.914 2074.88 401.375 2074.68 401.474 2074.68 401.474 2072.37 401.353 2072.28 401.255 2072.28 401.255 2072.06 401.231 2072.06 400.888 2072.06 400.888 2072.08 400.521 2072.23 400.521 2072.23 400.521 2072.81 400.596 2072.88 400.521 2072.88 400.521 2072.95 400.376 2072.88 400.376 2072.88 400.376 2071.43 400.131 2071.07 400.204 2071.07 400.204 2070.9 400.328 2071 400.4 2071 400.4 2071.58 400.448 2071.68 400.547 2071.68 400.547 2071.87 400.987 2071.65 401.132 2071.65 401.132 2069.32 401.205 2069.2 401.084 2069.08 400.96 2069.2 401.035 2069.2 401.035 2069.2 401.035 2069.05 400.594 2069.29 400.375 2069.29 400.375 2069.75 400.399 2069.87 400.327 2069.87 400.327 2069.92 400.203 2069.85 400.203 2069.85 400.203 2068.14 400.155 2068.09 400.229 2068.09 400.229 2067.99 400.327 2068.11 400.35 2068.11 400.35 2068.57 400.301 2068.64 400.399 2068.64 400.399 2068.83 400.423 2068.83 400.667 2068.83 400.667 2068.88 401.18 2068.67 401.131 2068.67 401.131 2066.36 401.131 2066.26 401.204 2066.26 401.204 2066.07 401.327 2066.16 400.912L2066.19 400.568C2066.19 400.568 2066.55 400.447 2066.81 400.447 2066.81 400.447 2066.96 400.349 2066.86 400.178ZM2084.09 399.833C2084.03 399.849 2083.93 399.895 2083.85 399.95 2083.8 399.986 2083.74 400.024 2083.71 400.051L2083.65 400.096 2083.64 400.104 2081.12 401.884 2082.5 401.889 2082.5 406.031 2082.5 406.025C2082.53 405.986 2082.56 405.951 2082.6 405.922 2082.61 405.907 2082.63 405.894 2082.65 405.883L2082.69 405.855 2082.7 405.752C2082.83 403.749 2083.97 400.384 2084.08 400.066 2084.09 399.991 2084.09 399.93 2084.09 399.885 2084.09 399.864 2084.09 399.847 2084.09 399.833ZM2053.91 399.812C2053.91 399.826 2053.91 399.843 2053.91 399.864 2053.91 399.909 2053.91 399.97 2053.92 400.045 2054.03 400.363 2055.17 403.727 2055.3 405.73L2055.31 405.834 2055.35 405.862C2055.37 405.873 2055.39 405.886 2055.4 405.901L2055.45 405.941 2055.45 402.158 2055.45 401.784 2056.77 401.789 2054.36 400.083 2054.35 400.075C2054.35 400.075 2054.33 400.06 2054.29 400.03 2054.26 400.003 2054.2 399.965 2054.15 399.929 2054.07 399.874 2053.97 399.827 2053.91 399.812ZM2084.98 399.577C2084.71 399.574 2084.64 399.744 2084.64 399.744 2084.78 399.952 2086.57 400.661 2086.57 400.66 2086.88 400.611 2086.75 400.427 2086.75 400.427 2086.55 400.45 2086.38 400.113 2086.38 400.113 2086.07 400.08 2085.94 399.733 2085.94 399.733 2085.76 399.779 2085.46 399.721 2085.46 399.721 2085.25 399.616 2085.1 399.579 2084.98 399.577ZM2053.02 399.556C2052.91 399.558 2052.75 399.595 2052.54 399.7 2052.54 399.7 2052.24 399.758 2052.06 399.712 2052.06 399.712 2051.93 400.059 2051.62 400.092 2051.62 400.092 2051.45 400.429 2051.25 400.406 2051.25 400.406 2051.12 400.59 2051.43 400.639 2051.43 400.64 2053.22 399.931 2053.36 399.723 2053.36 399.723 2053.29 399.553 2053.02 399.556ZM2068.89 397.784C2068.88 397.803 2068.88 397.826 2068.87 397.853 2068.87 397.88 2068.88 397.941 2068.91 397.996 2068.92 397.975 2068.93 397.948 2068.93 397.915 2068.93 397.891 2068.91 397.856 2068.9 397.82 2068.9 397.808 2068.89 397.797 2068.89 397.784ZM2068.94 397.326 2068.98 397.335C2069.1 397.375 2069.12 397.442 2069.16 397.491 2069.19 397.546 2069.22 397.6 2069.23 397.654 2069.28 397.759 2069.3 397.855 2069.3 397.858L2069.31 397.897 2069.3 397.938C2069.25 398.289 2069.04 398.416 2068.99 398.427L2068.92 398.45 2068.85 398.419C2068.53 398.265 2068.5 397.941 2068.51 397.853 2068.51 397.834 2068.51 397.82 2068.51 397.803 2068.56 397.419 2068.87 397.326 2068.91 397.331L2068.94 397.326ZM2083.53 396.138C2082.77 396.158 2081.5 396.557 2079.54 398.172 2079.54 398.172 2076.49 400.886 2075.64 401.691L2075.61 401.721 2075.61 401.77C2075.61 401.8 2075.61 401.828 2075.61 401.857 2075.61 401.859 2075.61 401.861 2075.61 401.863L2080.64 401.882 2083.94 399.436C2084.38 399.229 2084.71 398.617 2086.08 398.639 2086.13 398.64 2086.17 398.642 2086.22 398.644 2086.22 398.644 2087.67 399.037 2087.06 400.531 2087.06 400.531 2086.37 402.361 2086.34 402.628 2086.34 402.628 2086.19 402.628 2086.33 402.153 2086.33 402.153 2086.57 401.528 2086.38 401.586 2086.38 401.586 2086.15 401.679 2086.1 401.946 2086.1 401.946 2085.99 401.772 2086.05 401.297 2086.05 401.297 2085.84 401.819 2085.64 402.039 2085.64 402.039 2085.53 402.119 2085.57 401.819 2085.57 401.819 2085.7 401.343 2085.67 401.216 2085.67 401.216 2085.57 401.113 2085.32 401.645 2085.32 401.645 2085.27 401.912 2085.17 401.703 2085.17 401.703 2085.11 401.285 2085.27 401.031 2085.27 401.031 2085.28 400.88 2085.15 401.008 2085.15 401.008 2084.78 402.004 2084.71 402.35 2084.71 402.35 2084.55 402.5 2084.55 402.05 2084.55 402.05 2084.75 401.262 2084.75 401.008 2084.75 401.008 2084.55 401.274 2084.36 401.158 2084.36 401.157 2084.41 400.622 2084.35 400.149L2084.34 400.143 2084.34 400.146C2084.27 400.359 2083.1 403.806 2082.97 405.768 2082.97 405.768 2082.99 405.776 2083.01 405.79L2083.04 405.805 2083.04 405.805 2083.05 405.813 2083.07 405.825C2083.19 405.888 2083.41 405.992 2083.7 406.082 2083.7 406.082 2083.7 406.082 2083.7 406.082L2083.71 406.082C2083.75 406.09 2083.8 406.097 2083.84 406.103 2084.22 406.157 2084.67 406.174 2085.07 406.174 2085.32 406.174 2085.55 406.169 2085.74 406.161L2085.74 406.161 2085.88 406.127C2085.99 406.098 2086.1 406.063 2086.22 406.022 2086.22 406.022 2086.35 403.771 2087.34 401.463 2087.34 401.463 2088.28 399.754 2087.22 398.805 2087.22 398.805 2085.03 396.716 2084.47 396.398 2084.47 396.398 2084.2 396.12 2083.53 396.138ZM2054.47 396.117C2053.8 396.099 2053.53 396.377 2053.53 396.377 2052.97 396.695 2050.78 398.784 2050.78 398.784 2049.72 399.733 2050.66 401.442 2050.66 401.442 2051.65 403.749 2051.78 406.001 2051.78 406.001 2051.9 406.042 2052.01 406.077 2052.12 406.106L2052.26 406.14 2052.26 406.14C2052.45 406.148 2052.68 406.153 2052.93 406.153 2053.34 406.153 2053.78 406.136 2054.16 406.081 2054.2 406.076 2054.25 406.069 2054.29 406.061L2054.3 406.061 2054.3 406.061C2054.59 405.97 2054.81 405.867 2054.93 405.804L2054.95 405.792 2054.96 405.784 2054.96 405.784 2054.99 405.769C2055.01 405.755 2055.03 405.747 2055.03 405.747 2054.9 403.785 2053.73 400.338 2053.66 400.124L2053.66 400.122 2053.65 400.128C2053.6 400.601 2053.64 401.136 2053.64 401.137 2053.45 401.253 2053.25 400.987 2053.25 400.987 2053.25 401.241 2053.45 402.029 2053.45 402.029 2053.45 402.479 2053.29 402.329 2053.29 402.329 2053.22 401.983 2052.85 400.987 2052.85 400.987 2052.72 400.859 2052.73 401.01 2052.73 401.01 2052.89 401.264 2052.83 401.681 2052.83 401.681 2052.73 401.891 2052.68 401.624 2052.68 401.624 2052.43 401.092 2052.33 401.195 2052.33 401.195 2052.3 401.322 2052.43 401.798 2052.43 401.798 2052.47 402.098 2052.36 402.018 2052.36 402.018 2052.16 401.798 2051.95 401.276 2051.95 401.276 2052.01 401.751 2051.9 401.925 2051.9 401.925 2051.85 401.658 2051.62 401.565 2051.62 401.565 2051.43 401.507 2051.67 402.132 2051.67 402.132 2051.81 402.607 2051.66 402.607 2051.66 402.607 2051.63 402.34 2050.94 400.51 2050.94 400.51 2050.67 399.272 2051.38 398.815 2051.78 398.623 2052.36 398.511 2052.88 398.595 2053.31 398.866 2054.21 399.429 2054.26 399.561 2057.26 401.791L2062.48 401.811 2062.48 401.801C2062.48 401.795 2062.48 401.79 2062.48 401.784L2062.48 401.782C2061.85 401.163 2058.46 398.15 2058.46 398.15 2056.5 396.536 2055.23 396.137 2054.47 396.117ZM2068.87 394.953C2068.86 394.971 2068.85 394.992 2068.85 395.019 2068.85 395.047 2068.85 395.108 2068.89 395.163 2068.89 395.142 2068.9 395.115 2068.91 395.082 2068.9 395.05 2068.88 395.001 2068.87 394.953ZM2068.92 394.493 2068.95 394.502C2069.07 394.542 2069.1 394.608 2069.14 394.658 2069.17 394.712 2069.19 394.767 2069.21 394.82 2069.25 394.926 2069.28 395.021 2069.28 395.024L2069.29 395.064 2069.28 395.105C2069.23 395.457 2069.02 395.582 2068.96 395.592L2068.9 395.617 2068.83 395.584C2068.5 395.432 2068.48 395.109 2068.48 395.019 2068.48 395 2068.48 394.987 2068.48 394.97 2068.54 394.584 2068.85 394.492 2068.88 394.497L2068.92 394.493ZM2068.87 391.922C2068.86 391.941 2068.85 391.963 2068.85 391.99 2068.85 392.018 2068.85 392.079 2068.89 392.132 2068.89 392.112 2068.9 392.086 2068.91 392.052 2068.9 392.028 2068.89 391.993 2068.88 391.957 2068.88 391.945 2068.87 391.934 2068.87 391.922ZM2068.92 391.463 2068.95 391.472C2069.07 391.512 2069.1 391.579 2069.13 391.628 2069.17 391.682 2069.19 391.737 2069.21 391.791 2069.25 391.897 2069.28 391.992 2069.28 391.997L2069.29 392.035 2069.28 392.075C2069.23 392.428 2069.02 392.552 2068.96 392.564L2068.9 392.587 2068.83 392.556C2068.5 392.402 2068.48 392.079 2068.48 391.99 2068.48 391.971 2068.48 391.957 2068.48 391.939 2068.54 391.556 2068.85 391.463 2068.88 391.469L2068.92 391.463ZM2069.99 391.348C2069.99 391.905 2070 392.992 2070.01 394.19 2070.03 395.928 2070.07 397.907 2070.15 398.848 2070.16 399.017 2070.17 399.161 2070.19 399.246L2070.37 399.245C2071.11 399.247 2073.04 399.281 2074.55 399.638 2074.48 398.645 2073.98 394.753 2069.99 391.348ZM2067.89 391.269C2065.27 392.966 2064.1 396.947 2063.7 398.856 2063.62 399.208 2063.57 399.489 2063.54 399.67 2064.31 399.594 2066.77 399.353 2067.69 399.353 2067.74 399.353 2067.78 399.355 2067.82 399.356 2067.85 398.257 2067.98 395.357 2067.98 393.289 2067.98 392.718 2067.97 392.212 2067.95 391.827 2067.94 391.589 2067.91 391.39 2067.89 391.269ZM2067.96 391.055 2067.96 391.056 2068.03 391.174 2067.96 391.055ZM2068.96 388.068C2068.48 388.697 2067.67 389.263 2067.67 389.277 2063.29 392.578 2062.21 396.968 2062.01 398.032 2062.44 398.206 2062.74 398.586 2062.95 398.923 2063.04 399.076 2063.12 399.225 2063.18 399.353L2063.21 399.426 2063.21 399.406C2063.49 397.877 2064.59 392.857 2067.84 390.857 2067.87 390.836 2067.91 390.822 2067.96 390.822 2068.09 390.826 2068.15 390.914 2068.18 390.961 2068.2 391.016 2068.22 391.074 2068.24 391.137 2068.27 391.268 2068.29 391.435 2068.3 391.646 2068.34 392.061 2068.35 392.633 2068.35 393.288 2068.35 395.515 2068.2 398.683 2068.18 399.567L2068.18 399.82 2067.94 399.739C2067.94 399.738 2067.84 399.725 2067.69 399.725 2066.64 399.725 2063.35 400.063 2063.34 400.064L2063.26 400.072 2063.26 400.08C2063.24 400.132 2063.23 400.186 2063.21 400.242L2063.19 400.32 2063.26 400.309C2063.66 400.255 2064.14 400.208 2064.26 400.277 2064.26 400.277 2064.43 400.741 2064.17 400.912 2064.17 400.912 2063.76 401.057 2063.68 400.985 2063.68 400.985 2063.56 401.131 2063.73 401.18 2063.73 401.18 2065.13 401.131 2065.39 400.936 2065.39 400.936 2065.44 400.815 2065.39 400.717 2065.39 400.717 2064.72 400.79 2064.72 400.693 2064.72 400.693 2064.57 400.375 2064.72 400.155 2064.72 400.155 2067.08 399.934 2067.27 400.057 2067.27 400.057 2067.42 400.693 2067.17 400.717 2067.17 400.717 2066.72 400.742 2066.6 400.766 2066.6 400.766 2066.53 400.864 2066.62 400.864L2068.5 400.815C2068.5 400.815 2068.52 400.79 2068.47 400.618 2068.47 400.618 2067.95 400.667 2067.7 400.594 2067.7 400.594 2067.56 400.13 2067.7 400.009 2067.7 400.009 2069.24 399.763 2070.26 400.009 2070.26 400.009 2070.42 400.569 2070.18 400.594L2069.56 400.568C2069.56 400.568 2069.44 400.838 2069.56 400.838 2069.56 400.838 2071.17 400.96 2071.36 400.864 2071.36 400.864 2071.46 400.667 2071.36 400.667 2071.36 400.667 2070.88 400.618 2070.74 400.643 2070.74 400.643 2070.37 400.519 2070.66 399.983 2070.66 399.983 2073.21 399.96 2073.21 400.327 2073.21 400.327 2073.43 400.96 2073 400.864 2073 400.864 2072.61 400.79 2072.52 400.838 2072.52 400.838 2072.42 400.986 2072.59 401.009 2072.59 401.009 2074.1 401.205 2074.25 401.107 2074.25 401.107 2074.37 400.986 2074.15 400.936 2074.15 400.936 2073.58 400.936 2073.58 400.766 2073.58 400.766 2073.55 400.546 2073.62 400.399 2073.62 400.399 2073.6 400.252 2073.96 400.278 2073.96 400.278 2074.62 400.352 2074.81 400.321L2074.82 400.319 2074.79 400.194C2074.78 400.158 2074.77 400.123 2074.76 400.09L2074.76 400.077 2074.69 400.06C2073.23 399.662 2071.14 399.619 2070.37 399.621L2070.06 399.622 2070.02 399.624 2069.98 399.603C2069.88 399.546 2069.88 399.5 2069.86 399.467 2069.85 399.431 2069.84 399.397 2069.83 399.357 2069.82 399.278 2069.8 399.178 2069.79 399.054 2069.77 398.806 2069.75 398.469 2069.73 398.065 2069.69 397.261 2069.67 396.202 2069.66 395.15 2069.62 393.044 2069.62 390.953 2069.62 390.953L2069.62 390.565 2069.92 390.807C2073.62 393.807 2074.58 397.26 2074.83 398.907L2074.84 398.98 2074.89 398.899C2075.06 398.637 2075.28 398.425 2075.49 398.257 2075.7 398.094 2075.91 397.968 2076.05 397.89 2075.3 394.204 2072.34 391.17 2070.89 389.885 2070.4 389.448 2070.08 389.216 2070.08 389.215L2070.08 389.212 2070.07 389.206C2069.62 388.832 2069.21 388.368 2068.96 388.068ZM2068.81 385C2068.81 385 2069.75 386.077 2070.18 386.268 2070.18 386.268 2070.56 386.9 2069.81 387.216 2069.81 387.216 2069.75 387.407 2069.12 386.964L2069.26 387.557 2069.26 387.56C2069.33 387.643 2069.42 387.76 2069.54 387.896 2069.78 388.166 2070.1 388.505 2070.42 388.774L2070.42 388.775C2070.48 388.82 2070.76 389.038 2071.18 389.405L2071.34 389.542 2071.35 389.523C2071.4 389.467 2071.47 389.432 2071.55 389.432 2071.7 389.432 2071.83 389.571 2071.83 389.742 2071.83 389.807 2071.81 389.866 2071.78 389.916L2071.76 389.934 2071.79 389.957C2072.35 390.486 2073.02 391.179 2073.68 392.005L2073.69 392.014 2073.72 391.995C2073.75 391.979 2073.79 391.971 2073.83 391.971 2073.98 391.971 2074.1 392.11 2074.1 392.281 2074.1 392.345 2074.09 392.405 2074.06 392.454L2074.05 392.471 2074.22 392.709C2074.69 393.351 2075.14 394.057 2075.53 394.817L2075.55 394.871 2075.6 394.853C2075.62 394.849 2075.64 394.847 2075.66 394.847 2075.81 394.847 2075.94 394.986 2075.94 395.157 2075.94 395.264 2075.89 395.359 2075.82 395.415L2075.81 395.416 2075.84 395.482C2076.19 396.272 2076.47 397.112 2076.63 397.993L2076.67 398.209 2076.47 398.3C2076.47 398.3 2076.4 398.334 2076.28 398.402 2076.16 398.471 2076 398.574 2075.83 398.701 2075.52 398.944 2075.24 399.28 2075.2 399.603 2075.26 399.816 2075.49 400.666 2075.58 401.341L2075.58 401.367 2075.64 401.315C2076.68 400.341 2079.36 397.964 2079.36 397.961 2081.41 396.275 2082.74 395.859 2083.59 395.859 2084.2 395.855 2084.54 396.088 2084.64 396.174 2084.99 396.387 2085.63 396.962 2086.24 397.514 2086.86 398.077 2087.4 398.601 2087.41 398.602 2087.86 399.002 2088 399.542 2088 400.018 2088 400.791 2087.66 401.457 2087.59 401.58 2087.11 402.706 2086.84 403.825 2086.68 404.661 2086.6 405.077 2086.56 405.426 2086.53 405.667 2086.5 405.908 2086.5 406.038 2086.5 406.039L2086.37 406.145C2086.69 406.241 2086.82 406.564 2086.8 406.776 2086.8 406.977 2086.75 407.152 2086.7 407.26 2087.06 408.372 2087.18 409.22 2087.18 409.229L2087.18 409.255C2087.18 409.263 2087.18 409.272 2087.18 409.28 2087.17 409.715 2087.11 410.007 2087.01 410.226 2086.91 410.445 2086.7 410.605 2086.49 410.598 2086.33 410.593 2086.21 410.538 2086.12 410.476 2086.1 410.491 2086.09 410.506 2086.08 410.52 2085.97 410.625 2085.82 410.675 2085.7 410.674 2085.59 410.666 2085.49 410.641 2085.41 410.605 2085.3 410.743 2085.14 410.825 2084.98 410.824 2084.98 410.824 2084.97 410.824 2084.96 410.822 2084.74 410.82 2084.59 410.721 2084.47 410.641 2084.46 410.633 2084.45 410.626 2084.44 410.618 2084.41 410.622 2084.39 410.623 2084.37 410.623 2084.24 410.618 2084.16 410.577 2084.1 410.539 2084.08 410.565 2084.06 410.589 2084.04 410.61 2083.91 410.728 2083.76 410.748 2083.65 410.749 2083.47 410.745 2083.31 410.698 2083.2 410.658 2083.06 410.73 2082.93 410.759 2082.81 410.755 2082.72 410.755 2082.64 410.742 2082.58 410.725L2082.56 410.717 2082.55 410.931C2082.26 419.033 2079.06 424.486 2075.86 427.918 2072.49 431.522 2069.14 432.922 2069.11 432.937L2068.96 433 2068.81 432.929C2062.58 429.925 2059.22 425.247 2057.43 420.9 2055.65 416.55 2055.42 412.523 2055.42 410.748 2055.42 410.733 2055.42 410.718 2055.42 410.703L2055.42 410.704C2055.36 410.721 2055.28 410.734 2055.19 410.734 2055.07 410.738 2054.94 410.709 2054.81 410.637 2054.69 410.677 2054.53 410.724 2054.35 410.728 2054.24 410.727 2054.09 410.707 2053.96 410.589 2053.94 410.568 2053.92 410.544 2053.9 410.518 2053.84 410.556 2053.76 410.597 2053.64 410.602 2053.61 410.602 2053.59 410.601 2053.56 410.597 2053.55 410.605 2053.54 410.612 2053.53 410.62 2053.41 410.7 2053.26 410.799 2053.04 410.801 2053.03 410.803 2053.02 410.803 2053.02 410.803 2052.86 410.804 2052.7 410.722 2052.59 410.584 2052.51 410.619 2052.41 410.645 2052.3 410.653 2052.18 410.654 2052.03 410.604 2051.92 410.498 2051.91 410.485 2051.9 410.47 2051.88 410.455 2051.79 410.517 2051.67 410.572 2051.51 410.577 2051.3 410.584 2051.09 410.424 2050.99 410.205 2050.89 409.986 2050.83 409.694 2050.82 409.259 2050.82 409.251 2050.82 409.242 2050.82 409.234L2050.82 409.208C2050.82 409.199 2050.94 408.351 2051.3 407.239 2051.25 407.131 2051.2 406.956 2051.2 406.755 2051.18 406.542 2051.31 406.22 2051.63 406.123L2051.5 406.018C2051.5 406.017 2051.5 405.887 2051.47 405.645 2051.44 405.405 2051.4 405.056 2051.32 404.64 2051.16 403.804 2050.89 402.685 2050.41 401.559 2050.34 401.436 2050 400.77 2050 399.997 2050 399.521 2050.14 398.981 2050.59 398.581 2050.6 398.58 2051.14 398.056 2051.76 397.493 2052.37 396.941 2053.01 396.366 2053.36 396.153 2053.46 396.067 2053.8 395.834 2054.41 395.838 2055.26 395.838 2056.59 396.253 2058.64 397.94 2058.64 397.943 2061.51 400.493 2062.47 401.392L2062.49 401.409C2062.49 401.409 2062.49 401.408 2062.49 401.407 2062.51 400.949 2062.57 400.328 2062.77 399.812 2062.76 399.78 2062.75 399.743 2062.73 399.7 2062.67 399.571 2062.58 399.396 2062.48 399.221 2062.26 398.864 2061.95 398.543 2061.66 398.51L2061.39 398.473 2061.43 398.199C2061.43 398.183 2061.56 397.141 2062.15 395.644L2062.2 395.511 2062.18 395.49C2062.13 395.433 2062.1 395.356 2062.1 395.27 2062.1 395.099 2062.22 394.96 2062.38 394.96 2062.4 394.96 2062.42 394.962 2062.43 394.966L2062.44 394.967 2062.59 394.624C2062.91 393.97 2063.3 393.264 2063.79 392.542L2063.93 392.345 2063.93 392.341C2063.9 392.292 2063.88 392.232 2063.88 392.169 2063.88 391.999 2064 391.861 2064.16 391.861 2064.2 391.861 2064.23 391.87 2064.27 391.885L2064.27 391.886 2064.37 391.749C2064.78 391.218 2065.25 390.685 2065.79 390.163L2065.96 390.001 2065.94 389.947C2065.94 389.927 2065.93 389.906 2065.93 389.884 2065.93 389.713 2066.06 389.575 2066.21 389.575 2066.25 389.575 2066.29 389.584 2066.32 389.599L2066.37 389.626 2066.42 389.582C2066.71 389.326 2067.01 389.074 2067.34 388.828 2067.34 388.826 2067.61 388.63 2067.92 388.353 2068.17 388.133 2068.44 387.853 2068.6 387.624L2068.62 387.588 2068.62 387.027C2068.62 387.027 2068.31 387.154 2068.12 387.217 2068.12 387.217 2067.19 387.215 2067.5 386.458 2067.5 386.458 2068.5 385.508 2068.81 385Z" fill="#FFC000" fill-rule="evenodd"></path><path d="M1441.52 494.882 1441.52 508.096 1487.67 508.096 1487.67 522.041 1377.67 522.041 1377.67 508.096 1423.82 508.096 1423.82 494.882 1441.52 494.882ZM1473.82 456.703 1473.82 470.648 1444.59 470.648C1449.98 474.33 1454.59 477.986 1459.99 480.937 1465.36 484.593 1470.75 487.544 1476.12 491.201L1465.36 503.683C1459.99 500.026 1454.59 496.345 1448.44 492.688 1442.28 489.007 1437.67 484.593 1432.28 480.937 1426.91 484.593 1421.51 489.007 1416.15 492.688 1410.75 496.345 1404.6 500.757 1399.2 504.414L1388.44 491.931C1393.83 489.007 1399.2 485.325 1404.6 481.668 1409.99 477.986 1415.36 474.33 1419.97 470.648L1391.53 470.648 1391.53 456.703 1473.82 456.703 1473.82 456.703ZM1466.14 549.201C1466.14 552.882 1465.36 556.564 1463.84 559.489 1462.29 562.414 1459.99 564.633 1456.14 566.827 1453.05 568.29 1449.2 569.778 1445.37 571.241 1441.52 571.971 1436.91 572.703 1432.28 572.703 1427.67 572.703 1423.82 572.703 1419.21 571.241 1415.36 570.509 1411.51 569.021 1408.45 566.827 1405.35 565.365 1403.05 562.414 1400.75 559.489 1398.44 556.564 1398.44 552.882 1398.44 549.201 1398.44 545.544 1399.2 541.862 1400.75 538.937 1402.29 535.986 1404.6 533.792 1408.45 531.598 1411.51 530.111 1415.36 528.648 1419.21 527.185 1423.06 526.454 1427.67 525.723 1432.28 525.723 1436.91 525.723 1440.74 525.723 1445.37 527.185 1449.2 527.917 1453.05 529.379 1456.14 531.598 1459.2 533.792 1461.51 535.986 1463.84 538.937 1465.36 541.862 1466.14 545.544 1466.14 549.201ZM1416.9 549.201C1416.9 552.151 1418.45 555.076 1421.51 556.564 1424.6 558.027 1428.43 558.758 1433.06 558.758 1437.67 558.758 1441.52 558.027 1444.59 556.564 1447.68 555.076 1449.2 552.882 1449.2 549.201 1449.2 546.275 1447.68 543.325 1444.59 541.862 1441.52 540.399 1437.67 539.668 1433.06 539.668 1428.43 539.668 1424.6 540.399 1421.51 541.862 1418.45 544.081 1416.9 546.275 1416.9 549.201Z" fill="#7C7C7B" fill-rule="evenodd"></path><path d="M1524.35 463.102 1524.35 451.697 1542.27 451.697 1542.27 463.102 1568.74 463.102 1568.74 476.798 1498.67 476.798 1498.67 463.102 1524.35 463.102ZM1504.13 501.152C1504.13 498.115 1504.89 495.076 1506.45 492.039 1508 489.748 1510.35 487.456 1512.69 485.191 1515.01 483.672 1518.13 482.127 1522.03 481.381 1525.14 480.608 1529.04 479.861 1533.71 479.861 1537.61 479.861 1541.48 479.861 1545.39 481.381 1548.5 482.127 1551.61 483.672 1554.72 485.191 1557.06 486.71 1559.38 488.975 1560.94 492.039 1562.5 494.304 1563.29 497.368 1563.29 501.152 1563.29 504.216 1562.5 507.254 1560.94 510.292 1559.38 512.583 1557.06 514.849 1554.72 517.14 1552.4 518.659 1549.26 520.178 1545.39 520.95 1542.27 521.696 1538.37 522.469 1533.71 522.469 1529.8 522.469 1525.93 522.469 1522.03 520.95 1518.92 520.178 1515.81 518.659 1512.69 517.14 1510.35 515.621 1508 513.329 1506.45 510.292 1504.89 508 1504.13 504.962 1504.13 501.152ZM1515.01 528.57 1532.92 528.57 1532.92 536.938 1578.87 536.938 1578.87 528.57 1596.77 528.57 1596.77 561.292C1596.77 568.887 1592.87 572.697 1585.09 572.697L1525.93 572.697C1518.13 572.697 1514.25 568.887 1514.25 561.292L1515.01 528.57 1515.01 528.57ZM1545.39 501.152C1545.39 498.887 1544.59 496.595 1542.27 495.076 1539.93 493.558 1537.61 492.785 1533.71 492.785 1530.6 492.785 1527.48 493.558 1525.14 495.076 1522.79 496.595 1522.03 498.887 1522.03 501.152 1522.03 503.443 1522.79 505.735 1525.14 507.254 1527.48 508.773 1529.8 509.545 1533.71 509.545 1536.82 509.545 1539.93 508.773 1542.27 507.254 1544.59 506.481 1545.39 504.216 1545.39 501.152ZM1578.87 558.228 1578.87 550.634 1532.92 550.634 1532.92 558.228 1578.87 558.228ZM1614.67 498.887 1597.53 498.887 1597.53 523.241 1579.63 523.241 1579.63 453.988 1597.53 453.988 1597.53 483.672 1614.67 483.672 1614.67 498.887Z" fill="#7C7C7B" fill-rule="evenodd"></path><path d="M1682.06 543.54C1680.5 539.624 1678.92 535.735 1676.56 531.846 1674.21 527.956 1672.63 524.041 1671.05 520.152 1669.49 516.262 1667.9 512.347 1665.55 508.457 1663.99 504.568 1662.41 501.441 1660.82 498.34 1659.27 501.441 1657.68 504.568 1656.12 509.246 1654.54 513.135 1652.98 517.024 1650.6 521.702 1648.25 526.38 1646.69 530.295 1645.11 534.185 1643.53 538.074 1641.17 541.963 1639.62 545.879L1624.67 538.862C1626.25 534.947 1627.81 531.057 1630.16 525.618 1632.54 520.152 1634.89 515.474 1637.24 509.246 1639.62 503.78 1641.97 497.552 1645.11 492.086 1647.46 486.646 1649.84 480.418 1652.19 475.74L1628.6 475.74 1628.6 460.157 1693.86 460.157 1693.86 475.74 1669.49 475.74C1671.84 480.418 1674.21 485.857 1676.56 492.086 1678.92 497.552 1681.29 503.018 1683.64 508.457 1685.99 513.924 1688.34 519.363 1690.72 524.041 1693.07 528.719 1694.66 533.396 1697.01 537.286L1682.06 543.54ZM1709.58 454.691 1727.67 454.691 1727.67 567.69 1709.58 567.69 1709.58 454.691Z" fill="#7C7C7B" fill-rule="evenodd"></path><path d="M1771.44 535.996 1771.44 518.819 1742.67 518.819 1742.67 504.772 1819.66 504.772 1819.66 519.608 1789.34 519.608 1789.34 536.785 1771.44 535.996 1771.44 535.996ZM1752.78 475.89C1752.78 471.997 1753.56 468.867 1755.11 465.737 1756.66 462.607 1759 460.266 1761.33 457.924 1763.67 455.583 1766.79 454.031 1770.68 453.242 1773.78 452.479 1777.66 451.69 1782.33 451.69 1786.22 451.69 1790.1 452.479 1794.02 453.242 1797.11 454.031 1801 455.583 1803.33 457.924 1805.67 460.266 1808.01 462.607 1809.56 465.737 1811.1 468.867 1811.89 471.997 1811.89 475.89 1811.89 479.784 1811.1 482.914 1809.56 486.044 1808.01 489.174 1805.67 491.515 1803.33 493.856 1801 496.197 1797.9 497.749 1794.02 498.538 1790.89 499.301 1787.01 500.09 1782.33 500.09 1778.45 500.09 1774.56 500.09 1770.68 498.538 1767.56 497.749 1763.67 496.197 1761.33 493.856 1759 491.515 1756.66 489.174 1755.11 486.044 1753.56 482.914 1752.78 479.784 1752.78 475.89ZM1779.24 557.855 1847.67 557.855 1847.67 572.69 1772.23 572.69C1768.34 572.69 1766.01 571.901 1764.46 570.349 1762.88 568.797 1762.12 566.456 1762.12 562.537L1762.12 542.256 1780 542.256 1780 557.855ZM1769.89 475.89C1769.89 479.02 1770.68 482.124 1773.02 483.703 1775.33 485.255 1777.66 486.044 1781.57 486.044 1784.67 486.044 1787.01 485.255 1790.1 483.703 1792.44 482.124 1793.23 479.02 1793.23 475.89 1793.23 472.76 1792.44 469.656 1790.1 468.078 1787.79 466.526 1785.46 465.737 1781.57 465.737 1778.45 465.737 1775.33 466.526 1773.02 468.078 1771.44 470.419 1769.89 472.76 1769.89 475.89ZM1804.88 522.738 1827.46 522.738 1827.46 452.479 1845.33 452.479 1845.33 545.36 1827.46 545.36 1827.46 536.785 1804.88 536.785 1804.88 522.738Z" fill="#7C7C7B" fill-rule="evenodd"></path><path d="M1857.67 513.374C1863.03 503.983 1868.4 493.856 1874.5 483.703 1879.87 473.549 1885.23 464.185 1890.6 454.031L1892.1 454.031C1896.7 463.396 1902.07 473.549 1907.43 482.914 1912.8 492.278 1918.14 502.431 1923.5 511.796L1909.73 519.608C1906.67 514.137 1903.6 507.902 1900.54 502.431 1897.47 496.96 1894.4 490.726 1892.1 484.465 1889.07 490.726 1886 496.96 1882.93 502.431 1879.87 508.666 1876.8 514.926 1872.97 520.397L1857.67 513.374ZM1903.6 557.066 1968.67 557.066 1968.67 572.69 1895.94 572.69C1892.1 572.69 1889.83 571.901 1888.3 570.349 1886.77 568.797 1886 566.456 1886 562.537L1886 532.102 1903.6 532.102 1903.6 557.066ZM1914.3 475.101 1927.33 475.101 1927.33 453.242 1944.17 453.242 1944.17 534.444 1927.33 534.444 1927.33 489.937 1914.3 489.937 1914.3 475.101ZM1966.37 537.574 1949.53 537.574 1949.53 451.69 1966.37 451.69 1966.37 537.574Z" fill="#7C7C7B" fill-rule="evenodd"></path><path d="M1984.67 460.157 2043.95 460.157 2043.95 475.74 2002.37 475.74 2002.37 493.662 2038.57 493.662 2038.57 509.246 2002.37 509.246 2002.37 530.295 2052.41 530.295 2052.41 545.879 1996.99 545.879C1989.29 545.879 1985.43 541.963 1985.43 534.185L1984.67 460.157 1984.67 460.157ZM2063.98 454.691 2081.67 454.691 2081.67 567.69 2063.98 567.69 2063.98 509.246 2046.25 509.246 2046.25 493.662 2063.98 493.662 2063.98 454.691Z" fill="#7C7C7B" fill-rule="evenodd"></path><path d="M1383 600C1379.69 600 1377 597.314 1377 594L1377 594C1377 590.686 1379.69 588 1383 588L2076 588C2079.31 588 2082 590.687 2082 594.001L2082 594C2082 597.314 2079.31 600 2076 600Z" fill="#FFC000" fill-rule="evenodd"></path></g></svg>